<?xml version="1.0" encoding="utf-8"?>
<!-- Generator: Adobe Illustrator 23.0.1, SVG Export Plug-In . SVG Version: 6.00 Build 0)  -->
<svg version="1.1" xmlns="http://www.w3.org/2000/svg" xmlns:xlink="http://www.w3.org/1999/xlink" x="0px" y="0px"
	 viewBox="0 0 1495.41 1094" style="enable-background:new 0 0 1495.41 1094;" xml:space="preserve">
<style type="text/css">
	.st0{fill:#1D1F25;}
	.st1{fill:#E0ECDE;}
	.st2{opacity:0;fill:#FFFFFF;}
	.st3{fill:#E1FAFA;}
	.st4{fill:#C2F4F6;}
	.st5{fill:#519D7C;}
	.st6{fill:#795022;}
	.st7{fill:#38756E;}
	.st8{fill:#40AABF;}
	.st9{fill:#FFDD89;}
	.st10{fill:#455176;}
	.st11{fill:none;stroke:#FF9267;stroke-width:5.2541;stroke-miterlimit:10;}
	.st12{fill:#FF9267;}
	.st13{fill:#FF9169;}
	.st14{opacity:0.5;}
	.st15{fill:none;stroke:#FFFFFF;stroke-width:0.6568;stroke-miterlimit:10;}
	.st16{fill:#FEA958;}
	.st17{fill:#CEA57C;}
	.st18{fill:none;stroke:#FFDD89;stroke-width:5.2541;stroke-miterlimit:10;}
	.st19{fill:#FFAA59;}
	.st20{fill:#54658E;}
	.st21{fill:#571C16;}
	.st22{fill:#F1907D;}
	.st23{fill:#D6EAEB;}
	.st24{fill:#41535F;}
	.st25{fill:#94312B;}
	.st26{fill:#26333C;}
	.st27{fill:#FFFFFF;stroke:#231F20;stroke-width:1.0551;stroke-miterlimit:10;}
	.st28{fill:#CA6C52;}
	.st29{fill:#614341;}
	.st30{fill:#270D0E;}
	.st31{fill:#8B6A61;}
	.st32{fill:#A2C9C4;}
	.st33{fill:#5E1E15;}
	.st34{fill:#DD9944;}
	.st35{fill:#E17863;}
	.st36{fill:#FFFFFF;}
	.st37{fill:#D9C8B6;}
</style>
<g id="Layer_1">
	<rect x="-1.28" y="1024" class="st0" width="1499.97" height="70"/>
	<g>
		<g>
			<g>
				<path class="st1" d="M514.82,1043.44h5.2c4.09,0,7.46,1.08,10.11,3.2c2.67,2.14,4,5.19,4,9.15c0,4.08-1.32,7.2-3.96,9.36
					c-2.65,2.17-6.06,3.24-10.24,3.24h-5.1V1043.44z M517.96,1065.56h1.1c1.62,0,3.16-0.16,4.6-0.48c1.45-0.33,2.71-0.86,3.79-1.62
					c1.07-0.78,1.94-1.77,2.58-2.99c0.64-1.22,0.97-2.74,0.97-4.55c0-1.79-0.32-3.32-0.95-4.59c-0.63-1.28-1.51-2.26-2.66-2.97
					c-1.13-0.72-2.38-1.25-3.75-1.58c-1.37-0.35-2.9-0.5-4.59-0.5h-1.1V1065.56z"/>
				<path class="st1" d="M538.74,1061.16c0.04,1.38,0.49,2.59,1.33,3.61c0.87,1.02,1.99,1.51,3.36,1.51c1.09,0,1.98-0.25,2.69-0.75
					c0.7-0.51,1.36-1.25,1.98-2.26l2.54,1.43c-0.73,1.32-1.75,2.35-3.03,3.12c-1.28,0.74-2.68,1.11-4.21,1.11
					c-2.34,0-4.2-0.76-5.6-2.31c-1.38-1.59-2.07-3.51-2.07-5.83c0-2.43,0.66-4.45,1.98-6.01c1.29-1.56,3.17-2.31,5.64-2.31
					c2.41,0,4.21,0.75,5.44,2.31c1.24,1.54,1.87,3.52,1.87,5.93v0.46H538.74z M547.64,1058.91c-0.19-1.2-0.63-2.15-1.39-2.83
					c-0.75-0.7-1.72-1.05-2.92-1.05c-0.57,0-1.12,0.08-1.62,0.27c-0.5,0.2-0.94,0.48-1.33,0.82c-0.38,0.36-0.71,0.77-0.98,1.25
					c-0.25,0.49-0.42,0.99-0.5,1.55H547.64z"/>
				<path class="st1" d="M559.48,1056.46c-0.45-0.92-1.11-1.37-2-1.37c-0.42,0-0.8,0.15-1.13,0.45c-0.34,0.3-0.5,0.67-0.5,1.08
					c0,0.4,0.13,0.75,0.38,1.02c0.25,0.28,0.6,0.53,1.05,0.78c0.29,0.13,0.51,0.25,0.67,0.3c0.15,0.09,0.4,0.21,0.77,0.37
					c0.17,0.07,0.34,0.16,0.46,0.2c0.13,0.04,0.23,0.08,0.3,0.13c1.1,0.51,1.99,1.09,2.64,1.76c0.64,0.65,0.97,1.55,0.97,2.64
					c0,1.46-0.54,2.69-1.6,3.67c-1.04,0.98-2.31,1.46-3.77,1.46c-0.61,0-1.19-0.08-1.74-0.25c-0.55-0.15-1.07-0.39-1.56-0.69
					c-0.48-0.3-0.89-0.66-1.26-1.09c-0.37-0.44-0.65-0.92-0.85-1.43l2.57-1.15c0.73,1.32,1.68,1.97,2.84,1.97
					c0.47,0,0.9-0.12,1.29-0.38c0.41-0.25,0.71-0.57,0.89-0.95c0.19-0.4,0.23-0.81,0.12-1.28c-0.11-0.43-0.45-0.87-1.03-1.27
					l-2.95-1.55c-0.5-0.26-0.95-0.53-1.33-0.8c-0.38-0.27-0.69-0.55-0.93-0.84c-0.25-0.3-0.43-0.63-0.56-0.98
					c-0.12-0.38-0.18-0.79-0.18-1.28c0-1.26,0.44-2.32,1.34-3.19c0.89-0.88,1.97-1.31,3.26-1.31c1.96,0,3.38,0.88,4.27,2.71
					L559.48,1056.46z"/>
				<path class="st1" d="M570.25,1045.83c0,0.55-0.2,1.03-0.6,1.42c-0.4,0.4-0.89,0.6-1.46,0.6c-0.58,0-1.07-0.19-1.47-0.6
					c-0.4-0.39-0.6-0.87-0.6-1.42c0-0.58,0.2-1.07,0.6-1.48c0.4-0.41,0.89-0.6,1.47-0.6c0.57,0,1.06,0.19,1.46,0.6
					C570.05,1044.76,570.25,1045.24,570.25,1045.83z M569.69,1068.4h-3.01v-15.49h3.01V1068.4z"/>
				<path class="st1" d="M589.09,1068.12c0,2.9-0.55,5.17-1.67,6.79c-1.12,1.58-3.1,2.37-5.94,2.37c-2.2,0-4-0.63-5.4-1.88
					c-1.38-1.25-2.09-2.96-2.13-5.13h2.99c0,1.39,0.44,2.46,1.28,3.24c0.87,0.75,2,1.13,3.4,1.13c1.71,0,2.88-0.49,3.52-1.5
					c0.63-1,0.94-2.38,0.94-4.2v-2.95h-0.07c-0.62,0.95-1.39,1.67-2.31,2.18c-0.92,0.52-1.92,0.77-2.98,0.77
					c-2.32,0-4.15-0.8-5.48-2.41c-1.33-1.62-1.98-3.59-1.98-5.96c0-2.24,0.67-4.12,2.02-5.69c1.36-1.62,3.13-2.41,5.31-2.41
					c2.28,0,4.11,1.04,5.42,3.08h0.07v-2.63h3V1068.12z M581.2,1066.28c1.57,0,2.8-0.54,3.69-1.61c0.91-1.11,1.37-2.45,1.37-4.01
					c0-1.55-0.46-2.86-1.37-3.95c-0.88-1.07-2.12-1.62-3.69-1.62c-1.5,0-2.7,0.55-3.61,1.67c-0.89,1.08-1.34,2.38-1.34,3.9
					c0,1.56,0.45,2.88,1.34,3.97C578.5,1065.74,579.7,1066.28,581.2,1066.28z"/>
				<path class="st1" d="M596,1054.99h0.07c0.43-0.83,1.09-1.44,1.93-1.88c0.85-0.45,1.77-0.65,2.77-0.65c1.02,0,1.88,0.14,2.6,0.45
					c0.7,0.3,1.28,0.74,1.71,1.32c0.44,0.58,0.75,1.27,0.94,2.1c0.19,0.82,0.28,1.78,0.28,2.82v9.24h-3v-8.87
					c0-1.53-0.23-2.64-0.66-3.34c-0.45-0.73-1.37-1.1-2.77-1.1c-0.52,0-0.95,0.05-1.3,0.15c-0.36,0.09-0.67,0.23-0.94,0.42
					c-0.27,0.19-0.49,0.41-0.67,0.65c-0.17,0.25-0.35,0.51-0.5,0.81c-0.07,0.14-0.13,0.35-0.19,0.59c-0.05,0.24-0.1,0.49-0.14,0.73
					c-0.05,0.26-0.09,0.51-0.1,0.77c-0.02,0.26-0.03,0.46-0.03,0.61v1.45v7.12h-3v-15.49h3V1054.99z"/>
				<path class="st1" d="M619.85,1039.67h3v15.82h0.07c1.38-2.03,3.19-3.03,5.44-3.03c2.17,0,3.95,0.8,5.31,2.41
					c1.35,1.56,2.03,3.45,2.03,5.69c0,2.37-0.67,4.34-2,5.96c-1.34,1.61-3.17,2.41-5.47,2.41c-1.06,0-2.06-0.25-2.99-0.77
					c-0.92-0.51-1.69-1.23-2.31-2.18h-0.07v2.42h-3V1039.67z M627.62,1066.28c1.58,0,2.81-0.54,3.7-1.61
					c0.91-1.11,1.36-2.45,1.36-4.01c0-1.55-0.45-2.86-1.36-3.95c-0.89-1.07-2.12-1.62-3.7-1.62c-1.49,0-2.7,0.55-3.61,1.67
					c-0.89,1.08-1.34,2.38-1.34,3.9c0,1.56,0.45,2.88,1.34,3.97C624.92,1065.74,626.13,1066.28,627.62,1066.28z"/>
				<path class="st1" d="M636.11,1052.91h3.5l5.27,9.83l4.91-9.83h3.37l-12.65,24.37h-3.4l6.15-11.53L636.11,1052.91z"/>
				<path class="st1" d="M668.3,1062.13l-2.87,6.26h-3.37l12-26.01l12.01,26.01h-3.37l-2.88-6.26H668.3z M674.07,1049.2l-4.47,10.11
					h8.94L674.07,1049.2z"/>
				<path class="st1" d="M690.97,1068.4h-3v-28.73h3V1068.4z"/>
				<path class="st1" d="M698.37,1068.4h-2.99v-28.73h2.99V1068.4z"/>
				<path class="st1" d="M709.78,1056.56v2.47h-7.29v-2.47H709.78z"/>
				<path class="st1" d="M721.46,1042.68c-0.94-0.43-1.61-0.62-2-0.62c-0.64,0-1.12,0.18-1.4,0.6c-0.29,0.4-0.48,0.9-0.6,1.5
					c-0.06,0.45-0.1,0.79-0.12,1.05c-0.01,0.24-0.02,0.6-0.02,1.03v6.66h4.14v2.78h-4.14v12.71h-2.99v-12.71h-1.37v-2.78h1.37v-7.55
					c0-4.06,1.67-6.09,5.03-6.09c0.74,0,1.43,0.13,2.11,0.4V1042.68z"/>
				<path class="st1" d="M726.09,1055.43h0.09c0.39-0.93,0.94-1.66,1.68-2.18c0.74-0.55,1.6-0.79,2.59-0.79
					c0.83,0,1.65,0.24,2.47,0.75l-1.37,2.72c-0.48-0.42-1.1-0.63-1.83-0.63c-1.53,0-2.56,0.62-3.07,1.84
					c-0.22,0.58-0.38,1.17-0.46,1.72c-0.07,0.55-0.11,1.2-0.11,1.92v7.62h-3v-15.49h3V1055.43z"/>
				<path class="st1" d="M736.4,1061.16c0.05,1.38,0.48,2.59,1.33,3.61c0.88,1.02,1.99,1.51,3.37,1.51c1.09,0,1.99-0.25,2.69-0.75
					c0.7-0.51,1.36-1.25,1.98-2.26l2.53,1.43c-0.73,1.32-1.73,2.35-3.02,3.12c-1.27,0.74-2.68,1.11-4.22,1.11
					c-2.32,0-4.2-0.76-5.6-2.31c-1.37-1.59-2.07-3.51-2.07-5.83c0-2.43,0.65-4.45,1.98-6.01c1.28-1.56,3.16-2.31,5.62-2.31
					c2.42,0,4.23,0.75,5.45,2.31c1.25,1.54,1.86,3.52,1.86,5.93v0.46H736.4z M745.3,1058.91c-0.18-1.2-0.64-2.15-1.39-2.83
					c-0.74-0.7-1.72-1.05-2.92-1.05c-0.57,0-1.12,0.08-1.61,0.27c-0.5,0.2-0.95,0.48-1.34,0.82c-0.39,0.36-0.71,0.77-0.97,1.25
					c-0.24,0.49-0.43,0.99-0.52,1.55H745.3z"/>
				<path class="st1" d="M752.67,1061.16c0.05,1.38,0.5,2.59,1.34,3.61c0.86,1.02,1.98,1.51,3.36,1.51c1.1,0,1.99-0.25,2.69-0.75
					c0.7-0.51,1.37-1.25,1.98-2.26l2.53,1.43c-0.73,1.32-1.73,2.35-3,3.12c-1.28,0.74-2.69,1.11-4.23,1.11
					c-2.33,0-4.2-0.76-5.6-2.31c-1.38-1.59-2.07-3.51-2.07-5.83c0-2.43,0.65-4.45,1.97-6.01c1.29-1.56,3.16-2.31,5.65-2.31
					c2.39,0,4.21,0.75,5.42,2.31c1.25,1.54,1.86,3.52,1.86,5.93v0.46H752.67z M761.58,1058.91c-0.18-1.2-0.65-2.15-1.39-2.83
					c-0.75-0.7-1.73-1.05-2.91-1.05c-0.59,0-1.13,0.08-1.63,0.27c-0.5,0.2-0.95,0.48-1.33,0.82c-0.39,0.36-0.73,0.77-0.97,1.25
					c-0.26,0.49-0.43,0.99-0.52,1.55H761.58z"/>
				<path class="st1" d="M774.28,1056.56v2.47h-7.29v-2.47H774.28z"/>
				<path class="st1" d="M789.85,1065.98h-0.05c-0.63,0.95-1.4,1.67-2.33,2.18c-0.92,0.52-1.92,0.77-2.98,0.77
					c-2.33,0-4.14-0.8-5.47-2.41c-1.34-1.62-2-3.59-2-5.96c0-2.24,0.67-4.12,2.03-5.69c1.36-1.62,3.12-2.41,5.31-2.41
					c2.24,0,4.05,1,5.44,3.03h0.05v-15.82h3v28.73h-3V1065.98z M784.95,1066.28c1.59,0,2.83-0.54,3.71-1.61
					c0.9-1.11,1.37-2.45,1.37-4.01c0-1.55-0.46-2.86-1.37-3.95c-0.88-1.07-2.12-1.62-3.71-1.62c-1.48,0-2.68,0.55-3.59,1.67
					c-0.89,1.08-1.34,2.38-1.34,3.9c0,1.56,0.45,2.88,1.34,3.97C782.27,1065.74,783.47,1066.28,784.95,1066.28z"/>
				<path class="st1" d="M797.76,1054.83c1.62-1.58,3.61-2.37,5.94-2.37c2.33,0,4.31,0.79,5.9,2.37c1.63,1.59,2.44,3.55,2.44,5.87
					s-0.81,4.27-2.44,5.86c-1.58,1.59-3.57,2.37-5.9,2.37c-2.34,0-4.32-0.78-5.94-2.37c-1.59-1.59-2.39-3.54-2.39-5.86
					S796.16,1056.42,797.76,1054.83z M798.35,1060.7c0,1.43,0.53,2.7,1.58,3.81c1.02,1.06,2.28,1.58,3.77,1.58
					c1.45,0,2.72-0.53,3.76-1.58c1.05-1.1,1.58-2.37,1.58-3.81c0-1.46-0.52-2.73-1.58-3.81c-1.04-1.07-2.31-1.59-3.76-1.59
					c-1.49,0-2.75,0.52-3.77,1.59C798.89,1057.97,798.35,1059.24,798.35,1060.7z"/>
				<path class="st1" d="M820.11,1062.78l4.6-10.73l4.57,10.73l4.53-9.86h3.41l-7.94,16.02l-4.57-10.35l-4.6,10.35l-7.93-16.02h3.4
					L820.11,1062.78z"/>
				<path class="st1" d="M841.71,1054.99h0.06c0.44-0.83,1.1-1.44,1.95-1.88c0.83-0.45,1.77-0.65,2.76-0.65
					c1.03,0,1.89,0.14,2.6,0.45c0.71,0.3,1.29,0.74,1.71,1.32c0.46,0.58,0.76,1.27,0.95,2.1c0.19,0.82,0.27,1.78,0.27,2.82v9.24h-3
					v-8.87c0-1.53-0.21-2.64-0.66-3.34c-0.46-0.73-1.37-1.1-2.78-1.1c-0.51,0-0.94,0.05-1.31,0.15c-0.34,0.09-0.66,0.23-0.92,0.42
					c-0.27,0.19-0.5,0.41-0.67,0.65c-0.18,0.25-0.33,0.51-0.5,0.81c-0.05,0.14-0.12,0.35-0.17,0.59c-0.06,0.24-0.1,0.49-0.16,0.73
					c-0.03,0.26-0.07,0.51-0.1,0.77c-0.01,0.26-0.03,0.46-0.03,0.61v1.45v7.12h-3v-15.49h3V1054.99z"/>
				<path class="st1" d="M859.29,1068.4h-3v-28.73h3V1068.4z"/>
				<path class="st1" d="M864.56,1054.83c1.63-1.58,3.61-2.37,5.94-2.37c2.32,0,4.3,0.79,5.9,2.37c1.62,1.59,2.43,3.55,2.43,5.87
					s-0.81,4.27-2.43,5.86c-1.6,1.59-3.58,2.37-5.9,2.37c-2.33,0-4.31-0.78-5.94-2.37c-1.61-1.59-2.4-3.54-2.4-5.86
					S862.95,1056.42,864.56,1054.83z M865.16,1060.7c0,1.43,0.52,2.7,1.57,3.81c1.02,1.06,2.28,1.58,3.77,1.58
					c1.47,0,2.72-0.53,3.76-1.58c1.06-1.1,1.58-2.37,1.58-3.81c0-1.46-0.53-2.73-1.58-3.81c-1.04-1.07-2.28-1.59-3.76-1.59
					c-1.5,0-2.75,0.52-3.77,1.59C865.69,1057.97,865.16,1059.24,865.16,1060.7z"/>
				<path class="st1" d="M896.21,1068.4h-3v-2.42h-0.07c-1.33,1.98-3.1,2.95-5.3,2.95c-2.29,0-4.11-0.8-5.48-2.41
					c-1.33-1.62-1.98-3.59-1.98-5.96c0-2.24,0.68-4.12,2.02-5.69c1.36-1.62,3.14-2.41,5.33-2.41c2.23,0,4.04,1,5.41,3.03h0.07v-2.57
					h3V1068.4z M888.31,1066.28c1.57,0,2.81-0.54,3.71-1.61c0.9-1.11,1.35-2.45,1.35-4.01c0-1.55-0.45-2.86-1.35-3.95
					c-0.9-1.07-2.14-1.62-3.71-1.62c-1.49,0-2.7,0.55-3.6,1.67c-0.89,1.08-1.33,2.38-1.33,3.9c0,1.56,0.44,2.88,1.33,3.97
					C885.61,1065.74,886.82,1066.28,888.31,1066.28z"/>
				<path class="st1" d="M911.75,1065.98h-0.07c-0.62,0.95-1.4,1.67-2.32,2.18c-0.91,0.52-1.91,0.77-2.98,0.77
					c-2.32,0-4.13-0.8-5.47-2.41c-1.34-1.62-1.99-3.59-1.99-5.96c0-2.24,0.67-4.12,2.04-5.69c1.35-1.62,3.11-2.41,5.29-2.41
					c2.25,0,4.06,1,5.44,3.03h0.07v-15.82h3v28.73h-3V1065.98z M906.85,1066.28c1.58,0,2.81-0.54,3.7-1.61
					c0.92-1.11,1.36-2.45,1.36-4.01c0-1.55-0.45-2.86-1.36-3.95c-0.89-1.07-2.12-1.62-3.7-1.62c-1.5,0-2.69,0.55-3.61,1.67
					c-0.88,1.08-1.32,2.38-1.32,3.9c0,1.56,0.44,2.88,1.32,3.97C904.16,1065.74,905.36,1066.28,906.85,1066.28z"/>
				<path class="st1" d="M923.35,1067.02c0,0.53-0.18,0.99-0.56,1.36c-0.38,0.37-0.84,0.55-1.38,0.55c-0.52,0-1-0.19-1.37-0.55
					c-0.37-0.37-0.57-0.83-0.57-1.36c0-0.51,0.2-0.96,0.57-1.35c0.37-0.37,0.85-0.56,1.37-0.56c0.53,0,1,0.19,1.38,0.56
					C923.18,1066.05,923.35,1066.51,923.35,1067.02z"/>
				<path class="st1" d="M939.76,1057.32c-1.24-1.39-2.74-2.1-4.47-2.1c-1.45,0-2.67,0.56-3.69,1.64c-1,1.09-1.5,2.38-1.5,3.8
					c0,1.62,0.5,2.91,1.5,3.93c1.04,1.04,2.33,1.57,3.88,1.57c1.61,0,3.04-0.7,4.28-2.07v3.81c-1.29,0.69-2.72,1.02-4.29,1.02
					c-2.31,0-4.3-0.77-5.94-2.35c-1.63-1.55-2.43-3.47-2.43-5.79c0-2.38,0.81-4.36,2.43-5.96c1.62-1.58,3.65-2.37,6.1-2.37
					c1.61,0,2.99,0.33,4.14,1.02V1057.32z"/>
				<path class="st1" d="M944,1054.83c1.62-1.58,3.6-2.37,5.94-2.37c2.34,0,4.31,0.79,5.91,2.37c1.61,1.59,2.42,3.55,2.42,5.87
					s-0.8,4.27-2.42,5.86c-1.6,1.59-3.57,2.37-5.91,2.37c-2.33,0-4.31-0.78-5.94-2.37c-1.6-1.59-2.41-3.54-2.41-5.86
					S942.4,1056.42,944,1054.83z M944.6,1060.7c0,1.43,0.5,2.7,1.56,3.81c1.02,1.06,2.28,1.58,3.77,1.58c1.46,0,2.73-0.53,3.77-1.58
					c1.04-1.1,1.56-2.37,1.56-3.81c0-1.46-0.53-2.73-1.56-3.81c-1.04-1.07-2.31-1.59-3.77-1.59c-1.5,0-2.75,0.52-3.77,1.59
					C945.11,1057.97,944.6,1059.24,944.6,1060.7z"/>
				<path class="st1" d="M963.91,1054.87h0.08c0.43-0.72,1.02-1.29,1.78-1.76c0.74-0.43,1.53-0.65,2.35-0.65
					c1.95,0,3.45,0.9,4.5,2.73c0.48-0.83,1.16-1.5,2.02-2c0.84-0.5,1.79-0.73,2.78-0.73c3.46,0,5.17,2.22,5.17,6.68v9.26h-3v-8.77
					c0-0.39-0.02-0.8-0.05-1.18c-0.04-0.38-0.09-0.75-0.19-1.13c-0.09-0.35-0.22-0.68-0.41-1c-0.17-0.3-0.42-0.58-0.72-0.83
					c-0.4-0.26-0.91-0.39-1.53-0.39c-0.63,0-1.16,0.13-1.59,0.39c-0.43,0.25-0.76,0.57-0.99,0.92c-0.25,0.35-0.43,0.84-0.56,1.37
					c-0.12,0.54-0.21,1.05-0.25,1.5c-0.02,0.43-0.05,0.95-0.05,1.51v7.62h-3.01v-8.2c0-0.53,0-0.96-0.03-1.31
					c-0.02-0.37-0.09-0.8-0.2-1.35c-0.11-0.57-0.25-0.98-0.43-1.25c-0.18-0.3-0.45-0.58-0.83-0.83c-0.38-0.24-0.84-0.36-1.37-0.36
					c-1.54,0-2.52,0.67-2.96,1.99c-0.21,0.61-0.34,1.21-0.41,1.74c-0.06,0.56-0.09,1.21-0.09,1.96v7.62h-3v-15.49h3V1054.87z"/>
			</g>
			<g>
				<g>
					<path class="st1" d="M444.87,1059.27c14.16,0,28.32,0,42.48,0c1.29,0,1.29-1.99,0-1.99c-14.16,0-28.32,0-42.48,0
						C443.58,1057.29,443.58,1059.27,444.87,1059.27L444.87,1059.27z"/>
				</g>
				<g>
					<path class="st1" d="M1010.07,1059.27c14.15,0,28.31,0,42.47,0c1.3,0,1.3-1.99,0-1.99c-14.15,0-28.32,0-42.47,0
						C1008.79,1057.29,1008.79,1059.27,1010.07,1059.27L1010.07,1059.27z"/>
				</g>
			</g>
		</g>
	</g>
	<rect x="235.71" y="1.5" class="st2" width="1024" height="1021"/>
	<rect x="-1.28" class="st2" width="1497.97" height="1024"/>
</g>
<g id="Layer_2">
	<g>
		<rect x="-1.28" class="st3" width="1497.97" height="1024"/>
		<path class="st4" d="M1434.51,697.12c19.3-85.72-8.1-180.5-70.18-242.69c-3.21-48.26-13.2-99.81-48.12-133.27
			c-34.92-33.46-101.64-35.97-125.83,5.91c-78.61-97.56-211.43-148.27-335.06-127.94c-19.95,3.28-42.62,10.84-49.29,29.92
			c7.26-55.02-35.4-105.67-84.63-131.3c-113.42-59.05-258.8-18.78-354.81,65.69c-45.23,39.8-84.42,94.49-80.71,154.62
			c-31.06-11.12-67.08,1.07-90.83,23.98c-23.74,22.91-36.86,54.79-44.58,86.86c-16.97,70.43-10.34,146.32,18.57,212.75
			c-40.36,5.97-80.77,19.2-111.85,45.63C26.1,713.71,5.79,755.02,11.9,795.36c3.72,24.53,15.8,45.01,32.8,62.07h1279.08
			C1378.81,820.2,1419.88,762.06,1434.51,697.12z"/>
		<g>
			<path class="st5" d="M1210.66,597.18c-11.98,9.31-15.72,27.71-8.33,40.96c-7.96,0.52-14.53,6.66-18.59,13.53
				c-10.16,17.21-7.85,41.47,6.47,55.61c-13.18,8.99-18.35,26.3-17.83,42.25c0.36,11.09,3.1,22.31,9.33,31.5
				c19.95,29.41,67.43,28.23,91.87,6.15c20.38-18.41,23.98-44.69,14.08-69.6c-3.57-8.97-9.79-17.16-18.38-21.58
				c6.86-9.47,10.65-21.44,9-33.01s-9.17-22.48-20-26.87C1272.01,607.68,1235.66,577.74,1210.66,597.18z"/>
			<rect x="1222.14" y="794.05" class="st6" width="13.56" height="81.6"/>
			<path class="st7" d="M1207.99,712.52c1.18-4.15,2.71-8.24,4.84-12c0.55-0.98,6.52-8.29,6.42-8.54
				c-12.51-32.78-8.33-71.31,10.28-100.97c-6.38-0.26-12.95,1.57-18.87,6.18c-11.98,9.31-15.72,27.71-8.33,40.96
				c-7.96,0.52-14.53,6.66-18.59,13.53c-10.16,17.21-7.85,41.47,6.47,55.61c-13.18,8.99-18.35,26.3-17.83,42.25
				c0.36,11.09,3.1,22.31,9.33,31.5c19.95,29.41,67.43,28.23,91.87,6.15c6.78-6.12,11.69-13.12,14.87-20.64
				c-7.41,5.99-15.75,10.66-24.96,13.06C1222.31,790.3,1198.01,747.77,1207.99,712.52z"/>
		</g>
		<g>
			<path class="st5" d="M1364.57,670.92c-8.81,6.85-11.56,20.37-6.13,30.12c-5.85,0.38-10.69,4.89-13.67,9.95
				c-7.47,12.65-5.77,30.49,4.75,40.89c-9.69,6.61-13.49,19.34-13.11,31.06c0.26,8.15,2.28,16.41,6.86,23.16
				c14.67,21.62,49.57,20.76,67.55,4.52c14.98-13.54,17.63-32.86,10.35-51.17c-2.62-6.6-7.2-12.62-13.51-15.87
				c5.04-6.96,7.83-15.76,6.62-24.27c-1.21-8.51-6.74-16.53-14.71-19.75C1409.68,678.64,1382.96,656.62,1364.57,670.92z"/>
			<rect x="1373.02" y="815.66" class="st6" width="9.97" height="59.99"/>
			<path class="st7" d="M1362.61,755.71c0.86-3.05,1.99-6.06,3.56-8.82c0.41-0.72,4.79-6.09,4.72-6.28
				c-9.2-24.1-6.13-52.43,7.56-74.24c-4.69-0.19-9.52,1.15-13.88,4.54c-8.81,6.85-11.56,20.37-6.13,30.12
				c-5.85,0.38-10.69,4.89-13.67,9.95c-7.47,12.65-5.77,30.49,4.75,40.89c-9.69,6.61-13.49,19.34-13.11,31.06
				c0.26,8.15,2.28,16.41,6.86,23.16c14.67,21.62,49.57,20.76,67.55,4.52c4.98-4.5,8.59-9.65,10.94-15.18
				c-5.45,4.4-11.58,7.84-18.35,9.6C1373.15,812.9,1355.28,781.63,1362.61,755.71z"/>
		</g>
		<rect x="-1.28" y="857.44" class="st8" width="1497.97" height="166.56"/>
		<path class="st7" d="M1375.1,857.85c0.21-3.93,2.1-7.75,5.09-10.31c-4.09,0.79-7.45,4.48-7.85,8.63
			c-1.59-3.49-3.54-7.32-7.18-8.53c2.65,2.63,4.46,6.09,5.1,9.76c-2.34-4.38-6.31-8.46-11.27-8.72c2.38,1.58,4.77,3.16,6.81,5.15
			c1.82,1.77,3.35,3.9,4.14,6.3c2.16-0.21,4.48,0.51,5.69,2.29c0.53-3.82,2.98-7.33,6.38-9.13
			C1379.06,853.06,1376.05,855.04,1375.1,857.85z"/>
		<path class="st7" d="M1223.99,857.85c0.21-3.93,2.1-7.75,5.09-10.31c-4.09,0.79-7.45,4.48-7.85,8.63
			c-1.59-3.49-3.54-7.32-7.18-8.53c2.65,2.63,4.46,6.09,5.1,9.76c-2.34-4.38-6.31-8.46-11.27-8.72c2.38,1.58,4.77,3.16,6.81,5.15
			c1.82,1.77,3.35,3.9,4.14,6.3c2.16-0.21,4.48,0.51,5.69,2.29c0.53-3.82,2.98-7.33,6.38-9.13
			C1227.94,853.06,1224.94,855.04,1223.99,857.85z"/>
		<g>
			<polygon class="st9" points="129.15,469.98 129.15,862.01 579.94,862.01 579.94,165.49 			"/>
			<polygon class="st10" points="75.23,481.79 75.23,506.41 633.86,129.08 633.86,104.46 			"/>
			<polygon class="st10" points="196.83,811.35 288.45,811.35 288.45,433.16 196.83,495.04 			"/>
			<polygon class="st11" points="196.83,811.35 288.45,811.35 288.45,433.16 196.83,495.04 			"/>
			<polygon class="st12" points="246.28,461.64 237.95,467.27 237.95,811.35 246.28,811.35 			"/>
			<rect x="196.83" y="497.62" class="st12" width="91.62" height="8.79"/>
			<rect x="196.83" y="549.87" class="st12" width="91.62" height="8.79"/>
			<rect x="196.83" y="602.12" class="st12" width="91.62" height="8.79"/>
			<rect x="196.83" y="654.38" class="st12" width="91.62" height="8.79"/>
			<rect x="196.83" y="706.63" class="st12" width="91.62" height="8.79"/>
			<rect x="196.83" y="758.89" class="st12" width="91.62" height="8.79"/>
			<rect x="113.02" y="862.01" class="st10" width="466.93" height="22.21"/>
			<rect x="387.67" y="454.58" class="st10" width="95.02" height="118"/>
			<rect x="431.67" y="454.58" class="st12" width="7.01" height="118"/>
			
				<rect x="431.67" y="466.08" transform="matrix(-1.836970e-16 1 -1 -1.836970e-16 948.764 78.4049)" class="st12" width="7.01" height="95.02"/>
			<rect x="387.67" y="615.31" class="st10" width="95.02" height="118"/>
			<rect x="387.67" y="454.58" class="st11" width="95.02" height="118"/>
			<rect x="387.67" y="615.31" class="st11" width="95.02" height="118"/>
			<rect x="431.67" y="615.31" class="st12" width="7.01" height="118"/>
			
				<rect x="431.67" y="626.8" transform="matrix(-1.836970e-16 1 -1 -1.836970e-16 1109.493 239.1339)" class="st12" width="7.01" height="95.02"/>
			<polygon class="st13" points="580.48,290.75 580.48,857.44 1165.9,857.44 1165.9,529.83 			"/>
			<g class="st14">
				<line class="st15" x1="1139.56" y1="519.43" x2="1139.56" y2="857.44"/>
				<line class="st15" x1="1116.37" y1="505.77" x2="1116.37" y2="857.44"/>
				<line class="st15" x1="1093.18" y1="495.94" x2="1093.18" y2="857.44"/>
				<line class="st15" x1="1070" y1="486.1" x2="1070" y2="857.44"/>
				<line class="st15" x1="1046.81" y1="475.27" x2="1046.81" y2="857.44"/>
				<line class="st15" x1="1023.62" y1="471.72" x2="1023.62" y2="857.44"/>
				<line class="st15" x1="1000.44" y1="455.6" x2="1000.44" y2="857.44"/>
				<line class="st15" x1="977.25" y1="444.28" x2="977.25" y2="857.44"/>
				<line class="st15" x1="954.06" y1="436.91" x2="954.06" y2="857.44"/>
				<line class="st15" x1="930.87" y1="423.62" x2="930.87" y2="857.44"/>
				<line class="st15" x1="907.69" y1="413.79" x2="907.69" y2="857.44"/>
				<line class="st15" x1="884.5" y1="409.85" x2="884.5" y2="857.44"/>
				<line class="st15" x1="861.31" y1="398.54" x2="861.31" y2="857.44"/>
				<line class="st15" x1="838.12" y1="391.16" x2="838.12" y2="857.44"/>
				<line class="st15" x1="814.94" y1="380.83" x2="814.94" y2="857.44"/>
				<line class="st15" x1="791.75" y1="370.5" x2="791.75" y2="857.44"/>
				<line class="st15" x1="768.56" y1="357.71" x2="768.56" y2="857.44"/>
			</g>
			<polygon class="st16" points="580.48,822.08 580.48,290.75 738.24,355.18 738.24,822.08 			"/>
			<g>
				<line class="st15" x1="738.24" y1="572.59" x2="580.48" y2="572.59"/>
				<line class="st15" x1="738.24" y1="551.9" x2="580.48" y2="551.9"/>
				<line class="st15" x1="738.24" y1="531.22" x2="580.48" y2="531.22"/>
				<line class="st15" x1="738.24" y1="510.54" x2="580.48" y2="510.54"/>
				<line class="st15" x1="738.24" y1="489.85" x2="580.48" y2="489.85"/>
				<line class="st15" x1="738.24" y1="469.17" x2="580.48" y2="469.17"/>
				<line class="st15" x1="738.24" y1="448.49" x2="580.48" y2="448.49"/>
				<line class="st15" x1="738.24" y1="427.8" x2="580.48" y2="427.8"/>
				<line class="st15" x1="738.24" y1="407.12" x2="580.48" y2="407.12"/>
				<line class="st15" x1="738.24" y1="386.44" x2="580.48" y2="386.44"/>
				<line class="st15" x1="738.24" y1="365.75" x2="580.48" y2="365.75"/>
				<line class="st15" x1="728.02" y1="345.07" x2="580.48" y2="345.07"/>
				<line class="st15" x1="676.19" y1="324.39" x2="580.48" y2="324.39"/>
				<line class="st15" x1="619.43" y1="303.7" x2="580.48" y2="303.7"/>
			</g>
			<rect x="580.48" y="822.08" class="st17" width="157.76" height="35.36"/>
			<rect x="601.62" y="584.32" class="st10" width="115.47" height="237.76"/>
			
				<rect x="645.86" y="611.86" transform="matrix(-1 4.460820e-11 -4.460820e-11 -1 1315.3789 1251.6019)" class="st9" width="23.65" height="27.88"/>
			
				<rect x="645.86" y="660.38" transform="matrix(-1 4.491595e-11 -4.491595e-11 -1 1315.3789 1348.6268)" class="st9" width="23.65" height="27.88"/>
			
				<rect x="645.86" y="708.89" transform="matrix(-1 4.476185e-11 -4.476185e-11 -1 1315.3789 1445.6519)" class="st9" width="23.65" height="27.88"/>
			
				<rect x="645.86" y="757.4" transform="matrix(-1 4.476185e-11 -4.476185e-11 -1 1315.3789 1542.6769)" class="st9" width="23.65" height="27.88"/>
			<polygon class="st10" points="580.48,251.54 1235.97,519.23 1235.97,558.8 580.48,291.11 			"/>
			
				<rect x="806.41" y="600.06" transform="matrix(-1 4.487643e-11 -4.487643e-11 -1 1719.6653 1320.7517)" class="st10" width="106.85" height="120.64"/>
			
				<rect x="806.41" y="600.06" transform="matrix(-1 4.487643e-11 -4.487643e-11 -1 1719.6653 1320.7517)" class="st18" width="106.85" height="120.64"/>
			
				<rect x="806.41" y="656.46" transform="matrix(-1 4.491062e-11 -4.491062e-11 -1 1719.6653 1320.7517)" class="st9" width="106.85" height="7.82"/>
			
				<rect x="856.49" y="600.06" transform="matrix(-1 4.467214e-11 -4.467214e-11 -1 1719.6653 1320.7517)" class="st19" width="6.68" height="120.64"/>
			
				<rect x="995.06" y="600.06" transform="matrix(-1 4.487643e-11 -4.487643e-11 -1 2096.9622 1320.7517)" class="st10" width="106.85" height="120.64"/>
			
				<rect x="995.06" y="600.06" transform="matrix(-1 4.487643e-11 -4.487643e-11 -1 2096.9622 1320.7517)" class="st18" width="106.85" height="120.64"/>
			
				<rect x="995.06" y="656.46" transform="matrix(-1 4.487643e-11 -4.487643e-11 -1 2096.9622 1320.7517)" class="st9" width="106.85" height="7.82"/>
			
				<rect x="1045.14" y="600.06" transform="matrix(-1 4.467214e-11 -4.467214e-11 -1 2096.9622 1320.7517)" class="st9" width="6.68" height="120.64"/>
			
				<rect x="579.94" y="822.08" transform="matrix(-1 4.488353e-11 -4.488353e-11 -1 1318.1848 1651.9015)" class="st20" width="158.3" height="7.75"/>
			
				<rect x="579.94" y="829.83" transform="matrix(-1 4.488353e-11 -4.488353e-11 -1 1318.1848 1672.3586)" class="st10" width="158.3" height="12.71"/>
			
				<rect x="579.94" y="842.53" transform="matrix(-1 4.486044e-11 -4.486044e-11 -1 1318.1848 1692.8159)" class="st20" width="158.3" height="7.75"/>
			
				<rect x="579.94" y="850.28" transform="matrix(-1 4.490662e-11 -4.490662e-11 -1 1318.1848 1713.2731)" class="st10" width="158.3" height="12.71"/>
			<path class="st5" d="M547.34,845.24c-3.81,0.98-7.5,2.47-10.79,4.62c-4.36-6.16-13.42-8.41-20.16-5.01
				c-3.22-17.55-28.13-13.8-36.5-3.03c-0.99,1.28-5.05,6.85-4.12,8.57c-5.79-10.75-23.37-12.11-30.74-2.37
				c0.82-6.36-3.31-12.63-8.87-15.83c-5.56-3.2-12.26-3.79-18.65-3.37c-14.05,0.92-29.93,9.32-30.66,23.39
				c-6.69-9.58-22.84-10.26-30.31-1.27c-8.28-11.33-25.34-15.12-37.64-8.35c-6.12-8.99-17.33-14.25-28.15-13.21
				c-10.83,1.04-20.82,8.35-25.11,18.34c-11.3-9.95-29.82-10.36-41.55-0.93c-7.38-6.32-18.69-7.59-27.29-3.05
				c-2.03,1.07-4.02,2.47-6.32,2.58c-2.54,0.13-4.84-1.34-7.22-2.23c-5.69-2.15-12.54-0.87-17.07,3.2
				c-6.44-9.96-21.75-11.29-31.61-4.7c-6.69,4.48-11.03,11.59-13.27,19.41h457.54C576.82,846.1,561.62,841.58,547.34,845.24z"/>
		</g>
		<path class="st10" d="M1036.09,177.83c-42.36,0-76.69,34.34-76.69,76.69c0,18.09,7.66,34.71,17.41,49.56
			c8.93,13.6,19.08,26.33,28.73,39.41c9.52,12.9,18.47,26.22,27.64,39.37c0.2,0.28,3.06,3.91,2.91,4.17
			c-0.15-0.25,2.71-3.89,2.91-4.17c9.17-13.14,18.12-26.47,27.64-39.37c9.65-13.08,19.8-25.81,28.73-39.41
			c9.75-14.85,17.41-31.47,17.41-49.56C1112.78,212.17,1078.45,177.83,1036.09,177.83z M1036.09,290.95
			c-20.12,0-36.43-16.31-36.43-36.43s16.31-36.43,36.43-36.43c20.12,0,36.43,16.31,36.43,36.43S1056.21,290.95,1036.09,290.95z"/>
		<path class="st13" d="M1032.09,177.83c-42.36,0-76.69,34.34-76.69,76.69c0,18.09,7.66,34.71,17.41,49.56
			c8.93,13.6,19.08,26.33,28.73,39.41c9.52,12.9,18.47,26.22,27.64,39.37c0.2,0.28,3.06,3.91,2.91,4.17
			c-0.15-0.25,2.71-3.89,2.91-4.17c9.17-13.14,18.12-26.47,27.64-39.37c9.65-13.08,19.8-25.81,28.73-39.41
			c9.75-14.85,17.41-31.47,17.41-49.56C1108.79,212.17,1074.45,177.83,1032.09,177.83z M1032.09,290.95
			c-20.12,0-36.43-16.31-36.43-36.43s16.31-36.43,36.43-36.43c20.12,0,36.43,16.31,36.43,36.43S1052.21,290.95,1032.09,290.95z"/>
		<g>
			<path class="st21" d="M1265.89,267.68c0.26-9.65,0.52-19.29,0.78-28.94c0.09-3.48,0.26-7.21,2.31-10.02
				c1.46-2.01,3.71-3.3,6.04-4.16c4.21-1.57,8.76-1.91,13.24-2.24c11.11-0.82,21.95-2.39,33.01-3.57c2.47-0.26,5.01-0.48,7.39,0.22
				c2.38,0.7,4.59,2.55,4.98,5c0.15,0.93,0.05,1.96,0.56,2.76c1.01,1.61,3.41,1.13,5.3,1.32c3,0.31,5.4,2.84,6.44,5.68
				c1.04,2.83,0.98,5.94,0.87,8.95c-0.43,11.96-1.38,23.89-2.85,35.77c0,0.03-0.01,0.05-0.01,0.08c-0.47,3.8-1.01,7.62-2.36,11.2
				c-1.03,2.7-2.5,5.17-4.2,7.5c1.35-4.45,2.05-9.02,2.02-13.42c-0.07-8.99-0.81-17.98-2.23-26.85c-1.16-7.31-6.2-13.35-13.17-15.39
				c-5.64-1.65-11.47-0.95-17.23-0.89c-6.67,0.06-13.37-0.31-19.99,0.68c-2.4,0.36-4.81,0.91-6.94,2.1
				c-8.71,4.87-9.29,21.33-10.21,30.31c-0.64,6.22-0.68,12.58,0.49,18.71c-1.82-3.82-3.18-7.83-3.82-12.02
				c0-0.03-0.01-0.05-0.01-0.08C1265.67,276.17,1265.78,271.91,1265.89,267.68z"/>
			<path class="st22" d="M1341.59,289.71c1.36-3.58,1.89-7.4,2.36-11.2c0-0.03,0.01-0.05,0.01-0.08c0.78-0.14,1.61-0.07,2.34,0.24
				c1.59,0.67,2.71,2.19,3.26,3.82c0.55,1.64,0.62,3.39,0.62,5.12c0.01,3.64-0.25,7.43-2.02,10.61c-2.56,4.63-8.38,7.14-13.52,6.02
				c1.09-2.28,2.01-4.64,2.74-7.03C1339.09,294.88,1340.56,292.42,1341.59,289.71z"/>
			<path class="st22" d="M1259.32,280.94c1.01-0.97,2.5-1.3,3.9-1.21c1.06,0.07,2.08,0.36,3.09,0.7c0.64,4.18,2,8.19,3.82,12.02
				c0.6,3.14,1.51,6.21,2.84,9.18c0.38,0.84,0.79,1.68,1.21,2.51c-2.81-0.38-5.57-1.13-8.16-2.28c-1.61-0.71-3.2-1.59-4.32-2.94
				c-0.82-0.99-1.35-2.2-1.81-3.41c-1.06-2.84-1.73-5.82-1.99-8.83C1257.73,284.65,1257.84,282.35,1259.32,280.94z"/>
			<path class="st22" d="M1269.65,273.75c0.92-8.98,1.5-25.44,10.21-30.31c2.13-1.19,4.54-1.74,6.94-2.1
				c6.63-0.99,13.32-0.61,19.99-0.68c5.76-0.06,11.59-0.76,17.23,0.89c6.96,2.04,12,8.07,13.17,15.39
				c1.41,8.87,2.16,17.86,2.23,26.85c0.03,4.4-0.67,8.97-2.02,13.42c-0.73,2.4-1.65,4.76-2.74,7.03
				c-4.27,8.89-11.22,16.54-20.11,20.2c-7.19,2.97-16.75,2.62-23.45-1.45c-7.18-4.36-13.05-11.34-16.91-18.86
				c-0.43-0.83-0.84-1.67-1.21-2.51c-1.33-2.96-2.24-6.04-2.84-9.18C1268.96,286.33,1269.01,279.97,1269.65,273.75z"/>
			<path class="st23" d="M1308.32,377.59c0.58-0.42,0.99-1.02,1.4-1.61c1.72-2.47,3.44-4.95,5.16-7.42
				c1.75,2.06,3.53,4.09,5.36,6.07c1.1-1.07,1.72-2.53,2.35-3.93c2.17-4.8,4.8-9.36,7.6-13.83c0.51-0.81,1.02-1.62,1.54-2.42
				c-0.07,1.35-0.17,2.7-0.27,4.05c-0.14,1.75-0.3,3.51-0.5,5.25c-2.51,21.6-7.81,43.18-14.91,64.18
				c-3.22-16.57-6.1-33.2-8.67-49.88C1307.7,377.95,1308.02,377.81,1308.32,377.59z"/>
			<path class="st23" d="M1288.68,373.28c0.54,0.19,1.07-0.26,1.47-0.67c2.6-2.67,5.15-5.39,7.68-8.13
				c0.3,3.45,0.88,6.87,1.74,10.23c0.17,0.65,0.36,1.32,0.8,1.82c0.33,0.37,0.76,0.6,1.22,0.78c-0.58,1.15-1.16,2.29-1.75,3.44
				c-1.26,2.48-2.52,4.97-3.52,7.56c-1.49,3.86-2.38,7.93-3.27,11.97c-1.65,7.5-3.3,15-4.94,22.5c-2.52-12.07-4.59-24.22-5.97-36.48
				c-0.95-8.42-1.56-16.88-1.8-25.35c2.44,3.96,4.99,7.86,7.66,11.67C1288.18,372.91,1288.38,373.18,1288.68,373.28z"/>
			<path class="st23" d="M1280.64,334.59c5.2,6.14,10.41,12.29,15.61,18.43c1.96,2.32,4.21,4.79,7.21,5.22
				c-1.86,2.1-3.73,4.18-5.63,6.24c-2.52,2.74-5.08,5.46-7.68,8.13c-0.4,0.41-0.93,0.85-1.47,0.67c-0.3-0.1-0.5-0.38-0.68-0.63
				c-2.67-3.82-5.22-7.71-7.66-11.67c-0.02-0.71-0.05-1.41-0.07-2.12c-0.03-1.69-0.05-3.39-0.05-5.08
				C1280.21,347.38,1280.39,340.99,1280.64,334.59z"/>
			<path class="st24" d="M1316.04,427.95c7.1-21,12.4-42.58,14.91-64.18c0.2-1.75,0.36-3.5,0.5-5.25c3.07,3.95,6.27,7.8,9.6,11.53
				c3.12,3.5,6.35,6.9,9.69,10.19c0.59,0.59,1.23,1.23,1.34,2.06c0.09,0.64-0.15,1.27-0.39,1.87
				c-5.92,14.92-14.16,28.76-22.65,42.39c-8.12,13.05-16.8,25.24-26.79,36.79C1307.32,451.8,1311.98,439.97,1316.04,427.95z"/>
			<path class="st25" d="M1303.46,358.25c0.02,0,0.03,0.01,0.05,0.01c1.02,0.14,2.01,0.02,2.96-0.26c2.69,3.62,5.49,7.14,8.41,10.57
				c-1.72,2.47-3.44,4.95-5.16,7.42c-0.41,0.59-0.83,1.18-1.4,1.61c-0.3,0.22-0.62,0.36-0.95,0.48c-1.54,0.52-3.39,0.05-5.01-0.47
				c-0.25-0.08-0.51-0.17-0.76-0.27c-0.46-0.18-0.9-0.42-1.22-0.78c-0.45-0.5-0.64-1.17-0.8-1.82c-0.86-3.35-1.44-6.78-1.74-10.23
				C1299.73,362.43,1301.6,360.35,1303.46,358.25z"/>
			<path class="st26" d="M1226.19,471.2c1.19-1.86,2.2-3.87,2.61-6.04c0.37-1.92,0.26-3.9,0.15-5.85c-0.27-4.83-0.62-9.66-1-14.48
				c1.79,2.79,3.34,5.72,4.69,8.76c-1.44,5.67-2.02,11.66-4.94,16.7c-1.62,2.8-3.95,5.18-6.69,6.92
				C1223.01,475.47,1224.76,473.42,1226.19,471.2z"/>
			<path class="st24" d="M1260.93,368.63c2.11-1.56,4.34-2.94,5.96-4.23c4.44-3.54,8.89-7.08,13.33-10.62
				c0,1.69,0.02,3.39,0.05,5.08c0.01,0.71,0.05,1.41,0.07,2.12c0.23,8.47,0.84,16.93,1.8,25.35c1.39,12.26,3.46,24.41,5.97,36.48
				c2.43,11.63,5.27,23.18,8.32,34.65c1.02,3.85,2.16,7.69,3.31,11.52c1.27,4.23,2.55,8.45,3.75,12.69c-1.87-3-3.66-6.05-5.38-9.13
				c-5.47-9.83-10.3-20.04-15.1-30.23c-4.12-8.76-8.25-17.51-12.37-26.27c-5.66-12.02-11.34-24.08-15.49-36.7
				C1253.69,374.87,1257.1,371.47,1260.93,368.63z"/>
			<path class="st25" d="M1293.06,400.3c0.89-4.05,1.78-8.11,3.27-11.97c1-2.6,2.26-5.08,3.52-7.56c0.58-1.15,1.16-2.29,1.75-3.44
				c0.25,0.1,0.51,0.19,0.76,0.27c1.62,0.52,3.47,1,5.01,0.47c2.57,16.68,5.45,33.31,8.67,49.88c-4.07,12.02-8.72,23.86-13.78,35.39
				c-0.83,1.89-1.67,3.76-2.52,5.63c-1.15-3.84-2.29-7.68-3.31-11.52c-3.05-11.47-5.9-23.02-8.32-34.65
				C1289.76,415.3,1291.41,407.8,1293.06,400.3z"/>
			<path class="st27" d="M1218.77,920.17c-0.05-0.01-0.11-0.01-0.16-0.02c0.03-0.4,0.05-0.81,0.08-1.21
				c0.24,0.06,0.47,0.11,0.71,0.17C1219.19,919.47,1218.98,919.82,1218.77,920.17z"/>
			<path class="st27" d="M1218.59,920.49c0.01-0.11,0.01-0.22,0.02-0.33c0.05,0.01,0.11,0.01,0.16,0.02
				C1218.71,920.28,1218.65,920.38,1218.59,920.49z"/>
			<path class="st28" d="M1340.66,923.5c-1.56-0.17-3.14-0.09-4.67,0.27c-3.05,0.71-5.77,2.42-8.31,4.25
				c-2.04,1.46-4.1,3.13-5.03,5.46c-0.33,0.83-0.6,1.84-1.43,2.18c-0.56,0.23-1.19,0.06-1.77-0.11c-3.14-0.96-6.17-2.26-9.05-3.83
				c0.4-1.26,0.89-2.32,0.88-3.83c0-0.94-0.02-1.88-0.03-2.82c9.42-1.61,18.84-3.22,28.25-4.84
				C1339.74,921.35,1340.14,922.44,1340.66,923.5z"/>
			<path class="st29" d="M1321.21,935.66c0.83-0.34,1.1-1.35,1.43-2.18c0.93-2.33,2.99-4,5.03-5.46c2.55-1.82,5.26-3.54,8.31-4.25
				c1.53-0.36,3.11-0.44,4.67-0.27c1.26,2.62,3.17,5.06,5.03,7.31c3.7,4.48,7.46,9.03,12.25,12.32c6.1,4.19,13.6,6.16,19.26,10.93
				c1.24,1.05,2.41,2.27,2.94,3.8c0.08,0.24,0.14,0.49,0.2,0.74c-5.98,2.2-12.23,3.66-18.5,4.77c-6.28,1.12-12.87,2.55-19.38,2.13
				c-6.03-0.38-13.79-2.74-16.94-8.42c-1.02-1.84-1.36-4.25-3.16-5.33c-0.88-0.53-1.94-0.62-2.95-0.72c-3.03-0.3-6.04-0.77-9.02-1.4
				c-0.18-3.63-0.36-7.26-0.54-10.89c-0.09-1.91-0.19-3.88,0.2-5.77c0.09-0.45,0.21-0.86,0.34-1.25c2.88,1.57,5.91,2.86,9.05,3.83
				C1320.02,935.73,1320.65,935.89,1321.21,935.66z"/>
			<path class="st30" d="M1364.4,662.81c2.68-6.27,6.05-12.24,10.04-17.77c0.53,5.71,1.17,11.4,1.8,17.1
				c0.63,5.67,1.25,11.35,1.77,17.03c0.31,3.4,0.59,6.8,0.81,10.21c0.6,9.63,0.4,19.51,0.02,29.34h-7.79
				c0.39-13.18,0.3-26.38-0.29-39.55c-0.17-3.92-0.41-7.83-0.67-11.74c-0.8,1.3-1.57,2.61-2.1,4.03c-0.66,1.76-0.95,3.64-1.21,5.5
				c-0.1,0.74-0.19,1.47-0.29,2.21h-2.76h-4.59C1360.38,673.57,1362.15,668.09,1364.4,662.81z"/>
			<path class="st27" d="M1366.27,620.79c-0.08-0.7-0.16-1.41-0.24-2.11c0.46,0.14,0.92,0.27,1.38,0.41
				C1367,619.64,1366.62,620.2,1366.27,620.79z"/>
			<path class="st24" d="M1331.73,354.46c0.35-6.51,0.34-13.04,0.22-19.56c0.15,0.26,0.3,0.52,0.46,0.77
				c2.4,3.75,5.55,6.96,8.83,9.97c0.1,0.09,0.2,0.18,0.3,0.27c2.27,5.97,5,11.76,8.15,17.31c0.16,0.29,0.33,0.63,0.19,0.93
				c-0.08,0.17-0.25,0.28-0.41,0.39c-2.81,1.83-5.62,3.67-8.43,5.5c-3.33-3.73-6.53-7.58-9.6-11.53
				C1331.56,357.16,1331.66,355.81,1331.73,354.46z"/>
			<path class="st22" d="M1357.57,651.35c1.41-3.48,2.58-7.07,3.38-10.74c1.47-6.69,1.95-14.1,5.32-19.82
				c0.35-0.59,0.73-1.15,1.14-1.7c6.51,1.94,13.12,3.53,19.79,4.77c1.55,7.69,3.1,15.38,4.64,23.07c0.22,1.09,0.43,2.26,0.03,3.29
				c-0.37,0.95-1.2,1.62-2,2.25c-1.1,0.86-2.22,1.71-3.35,2.54c-1.9,1.42-3.84,2.79-5.79,4.14c-1.48,1.02-2.98,2.01-4.48,2.99
				c-0.64-5.7-1.27-11.39-1.8-17.1c-4,5.52-7.36,11.5-10.04,17.77c-2.04-0.32-3.99-1.16-5.61-2.43c-0.97-0.76-1.84-1.7-2.23-2.87
				C1355.89,655.49,1356.78,653.32,1357.57,651.35z"/>
			<path class="st24" d="M1306.29,492.5c-0.81-3.63-1.77-7.24-2.79-10.84c-1.2-4.24-2.48-8.47-3.75-12.69
				c0.85-1.87,1.69-3.75,2.52-5.63c9.99-11.56,18.66-23.75,26.79-36.79c8.48-13.63,16.72-27.47,22.65-42.39
				c0.24-0.6,0.48-1.23,0.39-1.87c-0.11-0.83-0.74-1.47-1.34-2.06c-3.34-3.29-6.57-6.69-9.69-10.19c2.81-1.83,5.62-3.67,8.43-5.5
				c0.16-0.1,0.32-0.21,0.41-0.39c0.14-0.3-0.03-0.64-0.19-0.93c-3.16-5.55-5.88-11.35-8.15-17.31
				c12.85,11.74,27.85,20.84,42.76,29.82c2.23,1.34,4.17,2.81,5.89,4.39c-8.36,28.21-16.9,56.38-27.39,83.85
				c-1.54,4.03-3.13,8.07-3.97,12.3c-1.28,6.46-0.79,13.12-0.29,19.68c2.57,33.75,2.83,67.86,5.48,101.68
				c-9.71,0.3-19.46-0.3-29.05-1.82c-6.63-1.05-13.51-2.69-18.5-7.18c-5.67-5.11-7.88-12.95-9.44-20.43
				c-2.47-11.81-3.99-23.78-5.28-35.78c0.93-3.38,1.82-6.78,2.6-10.2C1306.59,512.56,1308.49,502.35,1306.29,492.5z"/>
			<path class="st31" d="M1366.5,679.18h4.27c0.59,13.17,0.68,26.37,0.29,39.55h7.79c0.38-9.84,0.57-19.71-0.02-29.34
				c-0.21-3.41-0.49-6.81-0.81-10.21h5.31c0.48,8.93,0.24,17.95-0.08,26.89c-0.15,4.22-0.32,8.44-0.51,12.66h6.33
				c-0.31-9.72,0.83-19.48,1-29.22c0.06-3.44-0.01-6.89-0.2-10.33h6.6v134.44h-32.74V679.18H1366.5z"/>
			<path class="st24" d="M1358.84,476.28c0.84-4.23,2.43-8.27,3.97-12.3c10.49-27.48,19.04-55.65,27.39-83.85
				c14.77,13.54,11.92,35.17,11.19,54.9c-2.24,60.8-1.63,121.67-0.78,182.51c-1.63-0.41-3.27-0.83-4.9-1.24
				c-0.43-0.11-0.85-0.22-1.28-0.32c-9.81-2.48-19.63-4.96-29.45-7.41c-0.35-3.63-0.66-7.27-0.95-10.91
				c-2.65-33.82-2.91-67.93-5.48-101.68C1358.05,489.4,1357.55,482.74,1358.84,476.28z"/>
			<path class="st23" d="M1394.43,615.97c0.43,0.11,0.85,0.22,1.28,0.32c-0.16,2.28-0.32,4.56-0.48,6.85
				c-0.03,0.4-0.06,0.82-0.29,1.14c-0.47,0.69-1.49,0.64-2.31,0.51c-1.81-0.28-3.62-0.6-5.42-0.94c-6.68-1.24-13.28-2.84-19.79-4.77
				c-0.46-0.14-0.92-0.27-1.38-0.41c-0.38-3.37-0.74-6.75-1.06-10.12C1374.8,611.01,1384.61,613.49,1394.43,615.97z"/>
			<polygon class="st29" points="1359.14,679.18 1363.73,679.18 1363.73,813.61 1351.15,813.61 1347.58,813.61 1347.58,679.18 			
				"/>
			<path class="st30" d="M1175.81,967.94c1.74,0.32,3.52,0.33,5.29,0.32c3.85-0.04,7.69-0.24,11.53-0.44
				c2.98-0.16,5.96-0.31,8.95-0.47c5.1-0.27,10.25-0.54,15.17-1.89c2.32-0.64,4.62-1.54,6.43-3.12c3.89-3.39,5.05-9.44,9.51-12.03
				c1.32-0.76,2.82-1.15,4.3-1.52c4.54-1.15,9.09-2.3,13.63-3.45c-0.14,0.56-0.33,1.1-0.62,1.6c-1.69,2.97-5.68,3.54-9.09,3.47
				c-2.44-0.05-5-0.23-7.23,0.76c-4.79,2.14-5.84,8.41-9.11,12.51c-2.31,2.89-5.77,4.68-9.35,5.6c-3.58,0.92-7.31,1.05-11.01,1.13
				c-9.17,0.2-18.35,0.14-27.52-0.18c-2.75-0.1-5.93-0.45-7.4-2.77c-0.49-0.77-0.71-1.66-0.71-2.56
				C1170.82,966.33,1173.2,967.46,1175.81,967.94z"/>
			<path class="st29" d="M1169.14,962.22c0.74-1.66,2.04-3.01,3.39-4.24c11.74-10.66,29.02-14.42,39.06-26.68
				c2.16-2.64,3.91-5.6,5.65-8.54c0.45-0.76,0.9-1.52,1.35-2.28c0.06-0.1,0.12-0.21,0.18-0.31c0.38,0.05,0.76,0.08,1.14,0.13
				c5.48,0.72,11.44,2.13,14.72,6.59c0.71,0.97,1.27,2.05,2.12,2.9c2,2.01,5.24,2.3,7.95,1.45c2.02-0.63,3.8-1.79,5.5-3.06
				c0.61,4.66,0.87,9.37,0.75,14.07c-0.03,1.03-0.08,2.09-0.33,3.09c-4.54,1.15-9.09,2.3-13.63,3.45c-1.48,0.37-2.98,0.76-4.3,1.52
				c-4.47,2.58-5.62,8.64-9.51,12.03c-1.81,1.58-4.11,2.48-6.43,3.12c-4.92,1.35-10.07,1.63-15.17,1.89
				c-2.98,0.16-5.96,0.31-8.95,0.47c-3.84,0.2-7.68,0.4-11.53,0.44c-1.77,0.02-3.55,0-5.29-0.32c-2.61-0.48-4.99-1.61-7.24-3.04
				C1168.56,963.99,1168.77,963.06,1169.14,962.22z"/>
			<path class="st28" d="M1236.74,929.8c-0.85-0.85-1.41-1.94-2.12-2.9c-3.28-4.46-9.24-5.87-14.72-6.59
				c-0.38-0.05-0.76-0.08-1.14-0.13c0.21-0.35,0.42-0.7,0.62-1.06c10.04,2.44,20.17,4.5,30.37,6.16c0.16,0.97,0.3,1.94,0.43,2.91
				c-1.7,1.27-3.49,2.43-5.5,3.06C1241.99,932.1,1238.74,931.81,1236.74,929.8z"/>
			<path class="st24" d="M1233.23,590.87c0.18,0.03,0.36,0.05,0.53,0.08c7.06,0.91,14.12,1.81,21.18,2.72
				c5.61,0.72,11.54,1.4,16.73-0.85c9.6-4.17,15.4-16.35,19.27-25.45c2.97-6.97,4.76-14.57,6.97-21.81
				c1.33-4.36,2.63-8.73,3.83-13.12c1.29,12,2.81,23.98,5.28,35.78c1.56,7.47,3.77,15.32,9.44,20.43c4.99,4.49,11.87,6.13,18.5,7.18
				c9.6,1.52,19.34,2.12,29.05,1.82c0.28,3.64,0.6,7.28,0.95,10.91c0.32,3.38,0.67,6.75,1.06,10.12c0.08,0.7,0.15,1.41,0.24,2.11
				c-3.36,5.72-3.85,13.13-5.32,19.82c-0.8,3.67-1.97,7.26-3.38,10.74c-0.8,1.97-1.68,4.14-1.01,6.16c0.39,1.17,1.26,2.11,2.23,2.87
				c1.62,1.28,3.58,2.11,5.61,2.43c-2.26,5.28-4.02,10.76-5.26,16.37h-11.56v134.44h3.56c-3.73,34.32-6.53,68.75-8.37,103.23
				c-0.05,0.98-0.16,2.08-0.93,2.69c-0.46,0.37-1.07,0.48-1.65,0.58c-0.24,0.04-0.47,0.08-0.71,0.12
				c-9.42,1.61-18.84,3.22-28.25,4.84c-0.03-3.28-0.09-6.56-0.17-9.84c-0.84-32.67-2.06-65.31-2.8-97.98
				c-0.84-37.16-1.11-74.33-0.81-111.5c0.26-32.56,2.11-65.13-0.91-97.58c-0.9,5.1-1.8,10.2-2.7,15.3
				c-10.02,56.85-20.04,113.7-30.07,170.55c-7.72,43.8-15.43,87.62-21.04,131.73c-1-0.16-1.99-0.3-2.99-0.46
				c-10.2-1.67-20.33-3.72-30.37-6.16c-0.24-0.06-0.47-0.11-0.71-0.17C1225.79,809.7,1230.64,700.32,1233.23,590.87z"/>
			<path class="st30" d="M1383.33,679.18c-0.36-6.75-1.14-13.44-2.59-20.02c1.95-1.34,3.89-2.72,5.79-4.14
				c1.79,7.94,2.91,16.03,3.35,24.15c0.19,3.44,0.26,6.88,0.2,10.33c-0.17,9.74-1.31,19.5-1,29.22h-6.33
				c0.18-4.22,0.35-8.44,0.51-12.66C1383.57,697.13,1383.81,688.11,1383.33,679.18z"/>
			<path class="st24" d="M1227.95,444.83c-1.65-20.43-4.3-40.79-7.33-61.06c3.35-1.02,6.56-2.48,9.53-4.33
				c0.99-0.62,2-1.33,2.49-2.38c0.44-0.94,0.4-2.03,0.36-3.07c-0.09-2.12-0.14-4.21-0.16-6.31c0.7-0.55,1.39-1.12,2.04-1.73
				c1.36-1.27,2.56-2.79,3.08-4.58c0.37-1.27,0.35-2.68-0.12-3.89c5.13-2.51,10.18-5.19,15.15-8.02c5.28-3.01,11.16-5.67,16.58-8.87
				c-3.73,8.4-8.17,16.47-13.29,24.1c-0.23,0.34-0.47,0.76-0.3,1.14c0.11,0.25,0.37,0.4,0.62,0.53c1.45,0.76,2.9,1.52,4.35,2.28
				c-3.83,2.83-7.25,6.24-5.78,10.7c4.15,12.62,9.83,24.68,15.49,36.7c4.12,8.76,8.25,17.51,12.37,26.27
				c4.8,10.19,9.63,20.4,15.1,30.23c1.72,3.09,3.51,6.13,5.38,9.13c1.02,3.6,1.98,7.21,2.79,10.84c2.21,9.85,0.31,20.06-1.92,29.73
				c-0.79,3.42-1.67,6.81-2.6,10.2c-1.21,4.39-2.5,8.76-3.83,13.12c-2.21,7.24-4.01,14.84-6.97,21.81
				c-3.87,9.1-9.66,21.28-19.27,25.45c-5.19,2.25-11.12,1.57-16.73,0.85c-7.06-0.91-14.12-1.81-21.18-2.72
				c-0.18-0.02-0.36-0.05-0.53-0.08c-0.7-0.11-1.4-0.28-1.94-0.73c-1.13-0.92-1.16-2.6-1.1-4.06c0.62-13.75,1.87-27.47,3.75-41.1
				c2.47-17.93,6.02-35.82,5.95-53.93c-0.05-12.78-2.11-25.87-7.25-37.47C1231.29,450.55,1229.74,447.62,1227.95,444.83z"/>
			<path class="st26" d="M1230.19,591.36c0.04-0.94,0.11-1.88,0.16-2.82c0.16,0.63,0.43,1.19,0.94,1.6
				c0.54,0.45,1.24,0.62,1.94,0.73c0.18,0.03,0.36,0.05,0.53,0.08c7.06,0.91,14.12,1.81,21.18,2.72c5.61,0.72,11.54,1.4,16.73-0.85
				c9.6-4.17,15.4-16.35,19.27-25.45c2.97-6.97,4.76-14.57,6.97-21.81c1.33-4.36,2.63-8.73,3.83-13.12
				c0.13,1.24,0.27,2.49,0.41,3.73c1.21,10.75,2.65,21.47,4.87,32.05c1.56,7.47,3.77,15.32,9.44,20.43
				c4.99,4.49,11.87,6.13,18.5,7.18c9.48,1.5,19.09,2.1,28.69,1.83c0.12,1.76,0.23,3.51,0.37,5.27c-9.71,0.3-19.46-0.3-29.05-1.82
				c-6.63-1.05-13.51-2.69-18.5-7.18c-5.67-5.11-7.88-12.95-9.44-20.43c-2.47-11.81-3.99-23.78-5.28-35.78
				c-1.21,4.39-2.5,8.76-3.83,13.12c-2.21,7.24-4.01,14.84-6.97,21.81c-3.87,9.1-9.66,21.28-19.27,25.45
				c-5.19,2.25-11.12,1.57-16.73,0.85c-7.06-0.91-14.12-1.81-21.18-2.72c-0.18-0.02-0.36-0.05-0.53-0.08
				c-0.7-0.11-1.4-0.28-1.94-0.73C1230.16,594.5,1230.13,592.82,1230.19,591.36z"/>
			<path class="st28" d="M1232.85,355.59c0.82-0.22,1.66-0.32,2.51-0.28c0.28,0.01,0.56,0.04,0.82,0.15
				c0.33,0.13,0.61,0.37,0.84,0.64c0.36,0.4,0.62,0.87,0.82,1.37c0.48,1.21,0.5,2.63,0.12,3.89c-0.53,1.79-1.73,3.3-3.08,4.58
				c-0.65,0.61-1.34,1.17-2.04,1.73c-0.03-2.6-0.03-5.2-0.02-7.81C1232.83,358.44,1232.84,357.02,1232.85,355.59z"/>
			<path class="st24" d="M1256.28,364.69c5.12-7.63,9.56-15.71,13.29-24.1c3.61-2.13,7.02-4.49,9.91-7.37
				c0.03-0.03,0.07-0.07,0.11-0.1c0.4-0.4,0.79-0.82,1.17-1.25c-0.04,0.91-0.07,1.81-0.11,2.72c-0.25,6.39-0.43,12.79-0.41,19.19
				c-4.44,3.54-8.89,7.08-13.33,10.62c-1.62,1.29-3.85,2.68-5.96,4.23c-1.45-0.76-2.9-1.52-4.35-2.28
				c-0.24-0.13-0.51-0.27-0.62-0.53C1255.81,365.45,1256.05,365.03,1256.28,364.69z"/>
			<path class="st30" d="M1322.36,951.76c1.8,1.09,2.14,3.5,3.16,5.33c3.15,5.68,10.9,8.03,16.94,8.42
				c6.51,0.41,13.1-1.02,19.38-2.13c6.27-1.11,12.52-2.57,18.5-4.77c0.19,0.9,0.21,1.84,0.22,2.78c-12.99,5.44-27.41,7.49-41.4,5.76
				c-3.11-0.38-6.25-0.97-9.06-2.37s-5.27-3.73-6.24-6.71c-0.46-1.39-0.72-3.08-2.01-3.77c-0.52-0.27-1.12-0.33-1.71-0.38
				c-2.52-0.21-5.03-0.42-7.55-0.64c-0.62-0.05-1.3-0.14-1.71-0.6c-0.35-0.4-0.39-0.98-0.42-1.52c-0.03-0.51-0.05-1.02-0.08-1.53
				c2.98,0.63,5.99,1.11,9.02,1.4C1320.43,951.14,1321.49,951.23,1322.36,951.76z"/>
			<path class="st22" d="M1280.75,331.87c1.17-1.33,2.17-2.8,2.75-4.47c0.58-1.68,0.7-3.47,0.81-5.24c0.09-1.37,0.18-2.75,0.27-4.12
				c2.02,1.88,4.19,3.56,6.51,4.97c6.7,4.06,16.26,4.41,23.45,1.45c4.34-1.79,8.21-4.53,11.54-7.9c0.7,4.96,1.81,9.83,3.79,14.33
				c-3.09,8.49-9.96,15.72-16.54,22.27c-1.98,1.98-4.29,4.06-6.86,4.84c-0.95,0.29-1.94,0.4-2.96,0.26c-0.02,0-0.03-0.01-0.05-0.01
				c-3-0.43-5.24-2.91-7.21-5.22c-5.2-6.14-10.41-12.29-15.61-18.43C1280.67,333.68,1280.71,332.78,1280.75,331.87z"/>
			<path class="st23" d="M1313.33,353.15c6.57-6.55,13.45-13.77,16.54-22.27c0.61,1.38,1.3,2.71,2.09,4.01
				c0.12,6.53,0.13,13.06-0.22,19.56c-0.52,0.8-1.03,1.61-1.54,2.42c-2.8,4.47-5.43,9.03-7.6,13.83c-0.63,1.4-1.25,2.85-2.35,3.93
				c-1.83-1.98-3.61-4.02-5.36-6.07c-2.92-3.43-5.72-6.96-8.41-10.57C1309.04,357.21,1311.35,355.13,1313.33,353.15z"/>
			<g>
				<g>
					<path class="st32" d="M1303.57,358.35c-0.71,1.39-1.74,2.5-2.74,3.62c-1.01,1.12-1.99,2.27-3.02,3.38l-3.08,3.32l-3.14,3.27
						l-0.78,0.82c-0.25,0.26-0.54,0.58-0.94,0.84c-0.21,0.12-0.45,0.25-0.76,0.28c-0.3,0.04-0.65-0.04-0.9-0.21
						c-0.5-0.36-0.64-0.72-0.85-1.02l-2.43-3.83c-1.62-2.55-3.18-5.14-4.7-7.75l0.25-0.16c1.79,2.44,3.54,4.89,5.23,7.38l2.53,3.74
						c0.21,0.32,0.43,0.65,0.57,0.72c0.11,0.07,0.22,0.06,0.47-0.09c0.23-0.15,0.46-0.4,0.73-0.68l0.77-0.83l3.08-3.31l3.13-3.26
						c1.04-1.09,2.04-2.21,3.06-3.32c1.02-1.11,2.01-2.24,3.32-3.1L1303.57,358.35z"/>
				</g>
				<g>
					<path class="st32" d="M1331.85,354.54c-0.69,1.86-1.76,3.47-2.75,5.13c-0.99,1.66-1.95,3.34-2.86,5.04
						c-0.92,1.7-1.78,3.42-2.6,5.16c-0.85,1.68-1.47,3.65-3.01,5.17l-0.43,0.42l-0.39-0.44l-3.56-4.09l-1.77-2.05l-1.65-2.14
						c-1.11-1.42-2.2-2.87-3.28-4.31c-1.09-1.43-2.14-2.9-3.21-4.35l0.24-0.18c1.17,1.37,2.37,2.72,3.52,4.1
						c1.16,1.38,2.32,2.75,3.45,4.15l1.71,2.08l1.81,2l3.59,4.02l-0.82-0.02c1.25-1.24,1.86-3.11,2.71-4.88
						c0.83-1.77,1.74-3.49,2.68-5.2c0.95-1.7,1.93-3.38,2.95-5.04c1.01-1.66,2.03-3.32,3.42-4.73L1331.85,354.54z"/>
				</g>
			</g>
			<path class="st27" d="M1219.59,431.22c0,1.76-1.42,3.18-3.18,3.18h-0.19c-1.76,0-3.18-1.42-3.18-3.18v-50.21h6.56V431.22z"/>
			<path class="st33" d="M1213.03,344.69v-9.95h6.56v9.62c-0.87-0.3-1.77-0.51-2.69-0.52
				C1215.57,343.83,1214.29,344.23,1213.03,344.69z"/>
			<polygon class="st34" points="1251.81,289.59 1251.81,334.74 1219.59,334.74 1213.03,334.74 1181.19,334.74 1181.19,289.59 			
				"/>
			<path class="st22" d="M1200.95,374.9c0.33-5.59,0.39-11.19,0.2-16.79c-0.12-3.36-0.11-7.24,2.46-9.4
				c0.92-0.77,2.06-1.21,3.19-1.64c1.83-0.7,3.66-1.4,5.49-2.1c0.25-0.09,0.49-0.18,0.74-0.28c1.25-0.46,2.54-0.87,3.87-0.85
				c0.92,0.01,1.82,0.22,2.69,0.52c0.86,0.3,1.71,0.7,2.53,1.09c2.33,1.1,4.66,2.21,6.99,3.31c1.16,0.55,2.39,1.16,3.07,2.25
				c0.67,1.08,0.69,2.43,0.68,3.7c0,0.3,0,0.59-0.01,0.89c-0.01,1.43-0.02,2.85-0.03,4.27c-0.02,2.61-0.01,5.2,0.02,7.81
				c0.03,2.09,0.07,4.19,0.16,6.31c0.05,1.04,0.08,2.13-0.36,3.07c-0.49,1.06-1.5,1.77-2.49,2.38c-2.97,1.85-6.19,3.31-9.53,4.33
				c0.22,1.46,0.43,2.92,0.64,4.39c-7.04-1.11-14.1-2.06-21.17-2.84C1200.44,381.85,1200.75,378.38,1200.95,374.9z"/>
			<path class="st23" d="M1196.54,384.96c1.18,0.12,2.37,0.23,3.55,0.36c7.08,0.78,14.14,1.73,21.17,2.84
				c1.32,0.21,2.63,0.42,3.94,0.64l-0.26,10.51c-0.71-0.1-1.42-0.2-2.13-0.29c-7.96-1.07-15.93-2.08-23.91-3.03
				c-1.06-0.13-2.11-0.25-3.17-0.37L1196.54,384.96z"/>
			<path class="st24" d="M1190.79,461.73l-0.02-0.01l4.97-66.12c1.06,0.12,2.11,0.25,3.17,0.37c7.98,0.95,15.95,1.96,23.91,3.03
				c0.71,0.1,1.42,0.19,2.13,0.29c1.05,0.14,2.1,0.28,3.15,0.43c0.83,19.91,1.38,39.8,1.2,59.8c-0.04,3.97-0.28,8.37-2.88,11.28
				c-0.08,0.13-0.15,0.26-0.23,0.38c-1.43,2.22-3.18,4.27-5.18,6c-2.84,2.46-6.18,4.28-9.84,5.04c-6.25,1.3-13.35-0.88-17.04-6.08
				c-0.24-0.34-0.47-0.7-0.68-1.07C1191.22,471.29,1190.5,466.27,1190.79,461.73z"/>
			<path class="st33" d="M1213.03,381.01h6.56v50.21c0,1.76-1.42,3.18-3.18,3.18h-0.19c-1.76,0-3.18-1.42-3.18-3.18V381.01z"/>
			<ellipse class="st21" cx="1321.39" cy="274.27" rx="2.41" ry="3.24"/>
			<ellipse class="st21" cx="1287.87" cy="274.27" rx="2.41" ry="3.24"/>
			<path class="st21" d="M1331.68,267.9c-1.73-1.49-3.45-2.27-5.18-2.82c-1.73-0.53-3.45-0.77-5.18-0.77
				c-1.73,0-3.45,0.25-5.18,0.78c-1.73,0.56-3.45,1.33-5.18,2.81v0.42c1.73,0.08,3.45,0.13,5.18,0.14l5.18,0.07l5.18-0.07
				c1.73-0.01,3.45-0.06,5.18-0.14V267.9z"/>
			<path class="st21" d="M1276.81,268.32c1.73,0.08,3.45,0.13,5.18,0.14l5.18,0.07l5.18-0.07c1.73-0.01,3.45-0.06,5.18-0.14v-0.42
				c-1.73-1.48-3.45-2.26-5.18-2.81c-1.73-0.53-3.45-0.77-5.18-0.78c-1.73-0.01-3.45,0.24-5.18,0.77c-1.73,0.55-3.45,1.33-5.18,2.82
				V268.32z"/>
			<path class="st35" d="M1309.94,288.93c-1.76-0.14-3.51-0.1-5.27-0.16c-1.76,0.06-3.51,0.02-5.27,0.16v0.32
				c0.88,1.11,1.76,1.69,2.63,2.11c0.88,0.39,1.76,0.58,2.63,0.58c0.88,0,1.76-0.18,2.63-0.57c0.88-0.42,1.76-1,2.63-2.12V288.93z"
				/>
			<path class="st36" d="M1323.15,298.35l-0.46-0.14l-0.03-0.01l-0.09-0.01l-4.46-0.25l-4.46-0.14c-2.97-0.07-5.95-0.08-8.92-0.11
				c-2.97,0.04-5.95,0.03-8.92,0.12l-4.46,0.15l-4.46,0.25v1.06c1.49,1.92,2.97,3.2,4.46,4.34c1.49,1.11,2.97,1.95,4.46,2.64
				c2.97,1.36,5.95,1.93,8.92,1.98c2.97,0.04,5.95-0.47,8.92-1.76c1.49-0.61,2.97-1.43,4.46-2.5c1.49-1.07,2.97-2.32,4.46-4.1
				l-0.25-0.03c0.2-0.14,0.4-0.31,0.61-0.48L1323.15,298.35z"/>
			<path class="st35" d="M1263,290.08c-0.2-1.65-0.06-3.34,0.28-4.97c0.18-0.85,0.45-1.76,1.14-2.28c0.65-0.48,1.5-0.49,2.29-0.23
				c0.73,3.41,1.91,6.7,3.42,9.86c0.51,2.65,1.25,5.25,2.27,7.79c-1.97-0.41-3.85-1.31-5.37-2.62
				C1264.82,295.72,1263.35,292.97,1263,290.08z"/>
			<path class="st35" d="M1346.27,287.31c0.16,1.96-0.01,3.95-0.5,5.85c-1.13,4.44-5.02,6.09-9.12,6.28
				c0.26-0.74,0.52-1.48,0.74-2.23c1.7-2.34,3.17-4.8,4.2-7.5c0.85-2.24,1.38-4.59,1.77-6.96c0.65,0.13,1.28,0.49,1.71,1
				C1345.9,284.72,1346.17,286.04,1346.27,287.31z"/>
			<g>
				<path class="st26" d="M1303.37,481.74c-1.76-2.61-3.45-5.26-5.07-7.96c-1.63-2.69-3.09-5.48-4.56-8.26
					c-2.91-5.58-5.67-11.23-8.37-16.9l-8.07-17.03l-7.99-17.06c-5.31-11.37-10.63-22.82-14.49-34.82c-0.55-1.53-0.59-3.36,0.05-4.9
					c0.61-1.56,1.66-2.84,2.81-3.95c2.32-2.23,5.04-3.87,7.59-5.66c4.97-3.78,9.91-7.7,14.88-11.53l0.18,0.23l-7.3,5.96
					c-2.45,1.98-4.83,3.99-7.37,5.9c-2.56,1.83-5.23,3.5-7.43,5.67c-1.09,1.08-2.05,2.3-2.57,3.69c-0.54,1.39-0.5,2.9,0.02,4.32
					c4.03,11.87,9.31,23.27,14.68,34.62l8.06,17.03l8,17.06c2.68,5.68,5.41,11.33,8.29,16.9c1.45,2.78,2.91,5.55,4.44,8.29
					c1.56,2.72,3.06,5.47,4.49,8.28L1303.37,481.74z"/>
			</g>
			<g>
				<path class="st26" d="M1260.87,368.76c-1.46-0.31-2.72-1-4.01-1.65c-0.33-0.19-0.61-0.26-1.05-0.59
					c-0.21-0.16-0.43-0.49-0.45-0.82c-0.03-0.33,0.05-0.61,0.15-0.82c0.21-0.44,0.42-0.69,0.6-1l0.58-0.9
					c1.55-2.41,3.06-4.85,4.53-7.31c1.46-2.47,2.84-4.98,4.21-7.5l3.99-7.64l0.27,0.12c-1.02,2.7-2.16,5.35-3.43,7.94
					c-1.25,2.6-2.63,5.14-4.05,7.66c-1.42,2.51-2.93,4.98-4.53,7.38l-0.61,0.9c-0.2,0.3-0.44,0.61-0.54,0.83
					c-0.06,0.11-0.07,0.2-0.07,0.23c0,0.03-0.01,0.03,0.06,0.1c0.13,0.12,0.53,0.31,0.82,0.47c1.27,0.68,2.55,1.33,3.64,2.36
					L1260.87,368.76z"/>
			</g>
			<g>
				<path class="st26" d="M1331.57,358.42c1.78,1.97,3.51,3.97,5.25,5.97c1.74,1.99,3.44,4.02,5.25,5.94l5.48,5.73l2.74,2.87
					l1.4,1.45c0.47,0.51,0.97,1.23,0.99,2.12c0.01,0.86-0.32,1.53-0.55,2.13l-0.75,1.85c-0.5,1.23-1.04,2.45-1.56,3.67
					c-1.08,2.43-2.19,4.84-3.38,7.22c-2.36,4.76-4.93,9.42-7.58,14.02c-2.67,4.59-5.43,9.12-8.23,13.62
					c-2.79,4.51-5.7,8.96-8.71,13.32c-6.03,8.73-12.47,17.19-19.55,25.1l-0.22-0.19c6.78-8.14,13.15-16.61,19.03-25.41
					c2.95-4.4,5.76-8.88,8.54-13.38c2.78-4.51,5.51-9.04,8.15-13.63c2.62-4.6,5.15-9.24,7.48-13.98c1.19-2.36,2.3-4.76,3.39-7.16
					c0.53-1.21,1.06-2.42,1.56-3.64l0.75-1.83c0.25-0.62,0.49-1.19,0.48-1.68c0.02-0.95-1.18-1.81-2.04-2.8l-2.74-2.89l-5.48-5.79
					c-3.59-3.91-6.97-8.03-9.93-12.45L1331.57,358.42z"/>
			</g>
			<g>
				<path class="st26" d="M1341.34,345.53c0.13,0.06,0.26,0.12,0.38,0.19l0.07,0.1c0.75,1.08,1.17,2.29,1.69,3.45
					c0.5,1.17,1.04,2.33,1.57,3.49c1.07,2.32,2.18,4.61,3.35,6.89c0.59,1.14,1.19,2.25,1.82,3.38c0.08,0.16,0.18,0.34,0.23,0.58
					c0.06,0.23,0.05,0.58-0.13,0.85c-0.17,0.27-0.38,0.39-0.52,0.48l-0.41,0.25l-1.63,1.02c-2.17,1.36-4.38,2.67-6.62,3.94
					l-0.16-0.25c2.06-1.54,4.15-3.03,6.27-4.47l1.59-1.09c0.25-0.17,0.61-0.41,0.58-0.43c0.01,0.04,0.01-0.13-0.14-0.38
					c-0.64-1.1-1.28-2.23-1.89-3.36c-1.23-2.26-2.38-4.57-3.42-6.93c-0.52-1.18-1.02-2.37-1.5-3.56c-0.47-1.2-1-2.38-1.16-3.69
					l0.07,0.1c-0.08-0.11-0.16-0.23-0.23-0.35L1341.34,345.53z"/>
			</g>
			<g>
				<path class="st26" d="M1300.37,471.29c1.06,2.47,1.71,5.04,2.39,7.61l2.05,7.7c0.68,2.56,1.39,5.14,1.92,7.77
					c0.52,2.64,0.75,5.34,0.84,8.01c0.13,5.37-0.45,10.72-1.53,15.95c-1.08,5.23-2.69,10.34-4.7,15.27l-0.28-0.1
					c1.71-5.03,3.07-10.15,4.06-15.34c0.93-5.2,1.48-10.47,1.3-15.73c-0.11-2.63-0.36-5.24-0.89-7.81
					c-0.49-2.58-1.18-5.14-1.83-7.71l-1.98-7.72c-0.66-2.57-1.35-5.14-1.63-7.81L1300.37,471.29z"/>
			</g>
			<path class="st28" d="M1280.63,334.59c0.04-0.91,0.07-1.81,0.11-2.72c1.17-1.33,2.17-2.8,2.75-4.47c0.58-1.68,0.7-3.47,0.81-5.24
				c0.09-1.37,0.18-2.75,0.27-4.12c2.02,1.88,4.19,3.56,6.51,4.97c6.7,4.06,16.26,4.41,23.45,1.45c4.34-1.79,8.21-4.53,11.54-7.9
				c0.33,2.34,0.75,4.65,1.31,6.92c-10.88,9.46-22.96,17.53-35.85,23.99C1287.9,343.18,1284.27,338.88,1280.63,334.59z"/>
			<g>
				<path class="st26" d="M1364.83,608.57c-1.27-9.67-2.01-19.39-2.56-29.12c-0.57-9.73-1.01-19.46-1.44-29.19
					c-0.85-19.46-1.67-38.9-3.15-58.33c-0.3-4.87-0.42-9.82,0.42-14.7c0.83-4.89,2.69-9.47,4.42-14.01
					c3.45-9.1,6.77-18.25,9.9-27.46c6.29-18.42,11.93-37.07,17.64-55.69l0.28,0.08c-5.36,18.72-10.93,37.4-17.07,55.89
					c-3.07,9.25-6.29,18.45-9.75,27.56c-1.72,4.55-3.54,9.07-4.32,13.81c-0.8,4.74-0.68,9.6-0.36,14.44
					c0.73,9.7,1.39,19.44,1.88,29.16c0.48,9.73,0.87,19.46,1.27,29.19c0.4,9.73,0.82,19.46,1.36,29.17l0.89,14.57
					c0.29,4.86,0.67,9.71,0.89,14.58L1364.83,608.57z"/>
			</g>
			<g>
				<path class="st26" d="M1224.97,399.16c1.07-0.02,2.14,0.03,3.2,0.12l0.37,0.03l0.03,0.4c0.35,4.98,0.48,9.96,0.69,14.94
					c0.21,4.98,0.31,9.97,0.4,14.96c0.18,9.97,0.21,19.95-0.2,29.92l-0.3,0l-0.64-29.89l-0.44-14.94
					c-0.12-4.98-0.37-9.96-0.44-14.94l0.4,0.44c-1.04-0.2-2.08-0.44-3.11-0.74L1224.97,399.16z"/>
			</g>
			<g>
				<path class="st26" d="M1358.92,519.29c-2.01,0.2-4.01,0.18-6,0.1l-5.99-0.25l-11.97-0.5l0.64-0.58
					c-0.24,5.35-0.22,10.72,0.1,16.07l-0.49-0.5l12.49,1.25l6.24,0.68l3.12,0.37c0.51,0.05,1.07,0.15,1.53,0.16
					c0.45-0.01,1.07-0.22,0.94-0.61l0.28-0.09c0.05,0.15,0.05,0.35-0.03,0.5c-0.08,0.15-0.21,0.26-0.34,0.33
					c-0.26,0.15-0.54,0.22-0.82,0.25c-0.59,0.02-1.06-0.05-1.6-0.07l-3.13-0.21l-6.26-0.46l-12.51-1.03l-0.46-0.04l-0.03-0.47
					c-0.36-5.39-0.45-10.79-0.23-16.19l0.02-0.61l0.61,0.03l11.97,0.61l5.98,0.3c1.99,0.11,3.99,0.27,5.97,0.66L1358.92,519.29z"/>
			</g>
			<g>
				<path class="st26" d="M1239.12,511.85c2.38,0.02,4.72,0.2,7.07,0.4l7.06,0.55c4.71,0.37,9.45,0.78,14.13,1.72l0.64,0.13
					l-0.17,0.63l-2.9,10.62c-0.5,1.79-0.94,3.5-1.48,5.35c-0.15,0.51-0.64,1.09-1.19,1.29c-0.55,0.22-1.08,0.24-1.56,0.24
					c-0.95-0.03-1.84-0.09-2.77-0.14c-3.67-0.2-7.33-0.37-11-0.6c-3.67-0.21-7.33-0.46-10.99-0.71l0.01-0.3
					c3.67,0.06,7.34,0.14,11.01,0.25c3.67,0.09,7.34,0.24,11.01,0.36l2.73,0.09c0.43,0,0.84-0.04,1.14-0.17
					c0.31-0.14,0.47-0.32,0.6-0.68c0.47-1.68,0.94-3.52,1.41-5.27l2.81-10.65l0.47,0.75c-4.59-0.92-9.28-1.39-13.99-1.79l-7.07-0.6
					c-2.36-0.22-4.72-0.53-7.02-1.17L1239.12,511.85z"/>
			</g>
			<g>
				<path class="st26" d="M1296.23,529.1c-0.65,0.37-1.28,0.32-1.91,0.31l-1.89-0.02c-1.26-0.02-2.52-0.05-3.79-0.11
					c-1.26-0.05-2.53-0.06-3.79-0.13c-1.26-0.04-2.53-0.14-3.8-0.27l-0.01-0.3c1.26-0.19,2.53-0.32,3.8-0.37
					c1.27-0.07,2.54-0.08,3.81-0.09c1.27-0.02,2.54,0,3.81,0.06l1.9,0.12c0.63,0.04,1.27,0.05,1.88,0.48L1296.23,529.1z"/>
			</g>
			<g>
				<path class="st26" d="M1295.73,555.17c0.26,2.14,0.13,4.25,0.06,6.37c-0.07,2.12-0.11,4.24-0.12,6.35
					c-0.01,2.12,0.01,4.24,0.06,6.35c0.03,2.12,0.08,4.24,0.17,6.35c0.09,2.12,0.2,4.23,0.35,6.35c0.15,2.11,0.28,4.21,0.91,6.16
					c0.61,1.95,1.89,3.61,3.66,4.68c1.76,1.09,3.79,1.75,5.81,2.37l-0.08,0.29c-2.06-0.48-4.18-0.96-6.09-2.05
					c-0.96-0.53-1.84-1.23-2.58-2.07c-0.72-0.86-1.25-1.87-1.62-2.9c-0.74-2.09-0.93-4.27-1.1-6.38c-0.17-2.12-0.31-4.25-0.42-6.37
					c-0.24-4.25-0.31-8.51-0.23-12.77c0.04-2.13,0.1-4.26,0.19-6.38c0.09-2.13,0.18-4.26,0.73-6.35L1295.73,555.17z"/>
			</g>
			<g>
				<path class="st26" d="M1308.98,581.95c0.38,0.77,0.33,1.52,0.32,2.27l-0.02,2.26c-0.03,1.51-0.08,3.01-0.17,4.52
					c-0.08,1.51-0.13,3.01-0.25,4.52c-0.09,1.51-0.25,3.01-0.47,4.51l-0.3-0.01c-0.12-1.51-0.18-3.02-0.17-4.53
					c-0.02-1.51,0.02-3.02,0.04-4.52c0.01-1.51,0.06-3.01,0.13-4.52l0.13-2.26c0.04-0.75,0.04-1.51,0.47-2.25L1308.98,581.95z"/>
			</g>
			<g>
				<path class="st26" d="M1328.01,599.37c-2.4,1.19-4.95,1.96-7.48,2.74c-2.54,0.77-5.09,1.52-7.64,2.25
					c-2.55,0.72-5.12,1.42-7.68,2.1c-2.57,0.65-5.15,1.27-7.74,1.88c-5.17,1.2-10.36,2.32-15.59,3.27
					c-5.22,0.98-10.47,1.78-15.73,2.44l-0.05-0.29c5.21-0.97,10.41-2.01,15.6-3.06c5.18-1.09,10.36-2.22,15.5-3.47
					c2.57-0.63,5.14-1.28,7.7-1.95c2.56-0.65,5.12-1.33,7.68-2.03c2.55-0.7,5.1-1.43,7.64-2.18c2.54-0.76,5.06-1.56,7.7-1.99
					L1328.01,599.37z"/>
			</g>
			<path class="st37" d="M1302.38,484.36c0.26,1.4,0.25,2.92-0.43,4.18s-2.18,2.14-3.55,1.76c-1-0.28-1.75-1.16-2.11-2.14
				c-0.36-0.98-0.39-2.04-0.35-3.09C1296.11,479.65,1301.37,478.8,1302.38,484.36z"/>
			<path class="st37" d="M1307.03,528.67c0.13-4.64,6-4.22,5.92-0.18c-0.02,1.23-0.16,2.51-0.81,3.55
				c-0.65,1.04-1.96,1.76-3.13,1.39c-0.88-0.28-1.5-1.12-1.76-2S1307.01,529.6,1307.03,528.67z"/>
			<g>
				<g>
					<path class="st36" d="M1190.61,308.96v3.34h2.76v1.77h-2.76v5.51h-1.91V307.2h5.66v1.77H1190.61z"/>
					<path class="st36" d="M1202.13,315.64c0,0.53-0.04,1.04-0.11,1.53c-0.07,0.49-0.27,0.96-0.59,1.4
						c-0.31,0.44-0.71,0.74-1.18,0.92c-0.47,0.18-0.97,0.27-1.49,0.27c-0.52,0-1.02-0.09-1.49-0.27c-0.47-0.18-0.87-0.48-1.19-0.92
						c-0.32-0.42-0.52-0.88-0.59-1.4c-0.08-0.51-0.11-1.02-0.11-1.53v-4.51c0-0.52,0.04-1.03,0.12-1.52
						c0.08-0.5,0.28-0.96,0.59-1.39c0.31-0.44,0.7-0.74,1.18-0.93s0.98-0.28,1.5-0.28c0.53,0,1.03,0.09,1.49,0.28
						c0.46,0.18,0.86,0.49,1.18,0.93c0.32,0.42,0.52,0.88,0.59,1.39c0.07,0.51,0.11,1.02,0.11,1.52V315.64z M1200.23,311.17
						c0-0.28-0.01-0.57-0.02-0.86c-0.02-0.29-0.09-0.56-0.22-0.82c-0.13-0.22-0.3-0.39-0.52-0.5c-0.22-0.11-0.45-0.17-0.7-0.17
						c-0.36,0-0.64,0.07-0.84,0.21s-0.34,0.33-0.44,0.56c-0.09,0.23-0.15,0.48-0.17,0.76c-0.02,0.28-0.03,0.55-0.03,0.82v4.44
						c0,0.27,0.01,0.55,0.03,0.82c0.02,0.28,0.07,0.53,0.17,0.76c0.09,0.23,0.24,0.42,0.44,0.56c0.2,0.14,0.48,0.21,0.84,0.21
						c0.36,0,0.63-0.07,0.83-0.21c0.2-0.14,0.34-0.33,0.44-0.56c0.09-0.23,0.15-0.48,0.17-0.76c0.02-0.28,0.03-0.55,0.03-0.82
						V311.17z"/>
					<path class="st36" d="M1208.59,319.58l-1.63-5.08h-1.15v5.08h-1.91V307.2h2.99c1.16,0,2.04,0.3,2.65,0.9s0.91,1.48,0.91,2.64
						c0,0.67-0.12,1.3-0.37,1.88c-0.25,0.58-0.68,1.03-1.3,1.36l1.81,5.6H1208.59z M1208.46,310.85c0-0.27-0.03-0.53-0.1-0.79
						c-0.06-0.25-0.19-0.48-0.37-0.69c-0.19-0.2-0.42-0.32-0.69-0.35c-0.27-0.04-0.54-0.06-0.8-0.06h-0.71v3.76h0.71
						c0.71,0,1.21-0.13,1.5-0.39C1208.31,312.08,1208.46,311.58,1208.46,310.85z"/>
					<path class="st36" d="M1223.24,316.6c0,0.5-0.09,0.94-0.26,1.33c-0.17,0.39-0.41,0.72-0.72,0.99
						c-0.31,0.27-0.67,0.48-1.07,0.62s-0.85,0.21-1.34,0.21c-1.14,0-2.01-0.31-2.6-0.93c-0.59-0.62-0.98-1.47-1.15-2.56l1.84-0.53
						c0.04,0.27,0.1,0.54,0.19,0.81c0.09,0.27,0.21,0.5,0.35,0.72c0.15,0.21,0.33,0.38,0.55,0.51c0.22,0.13,0.49,0.2,0.82,0.2
						c0.43,0,0.77-0.13,1.02-0.38c0.25-0.25,0.38-0.6,0.38-1.03c0-0.38-0.12-0.73-0.35-1.05c-0.23-0.32-0.53-0.62-0.89-0.92
						c-0.36-0.3-0.74-0.59-1.15-0.88c-0.41-0.29-0.79-0.61-1.15-0.97c-0.36-0.35-0.66-0.75-0.89-1.18
						c-0.24-0.43-0.35-0.93-0.35-1.49c0-0.47,0.08-0.89,0.25-1.26c0.17-0.38,0.4-0.7,0.69-0.97c0.29-0.27,0.63-0.47,1.02-0.61
						c0.39-0.14,0.81-0.21,1.26-0.21c0.5,0,0.93,0.08,1.31,0.23c0.38,0.15,0.71,0.37,0.99,0.65c0.28,0.28,0.52,0.61,0.72,0.98
						c0.19,0.38,0.34,0.79,0.45,1.24l-1.83,0.53c-0.05-0.2-0.12-0.41-0.21-0.63c-0.09-0.22-0.19-0.42-0.32-0.59
						c-0.13-0.17-0.29-0.32-0.47-0.44c-0.18-0.12-0.4-0.18-0.64-0.18c-0.36,0-0.65,0.12-0.89,0.36c-0.23,0.24-0.35,0.54-0.35,0.9
						c0,0.37,0.12,0.72,0.35,1.02c0.24,0.31,0.53,0.6,0.89,0.89c0.36,0.28,0.74,0.58,1.15,0.88s0.79,0.63,1.15,0.99
						c0.36,0.36,0.66,0.76,0.89,1.21C1223.13,315.51,1223.24,316.02,1223.24,316.6z"/>
					<path class="st36" d="M1229.67,319.58l-0.52-2.69h-2.66l-0.48,2.69h-1.88l2.37-12.38h2.62l2.5,12.38H1229.67z M1227.79,309.57
						l-0.98,5.55h2L1227.79,309.57z"/>
					<path class="st36" d="M1232.95,319.58V307.2h1.91v10.61h3.81v1.77H1232.95z"/>
					<path class="st36" d="M1239.85,319.58V307.2h5.6v1.77h-3.69v3.26h2.73v1.77h-2.73v3.82h3.69v1.77H1239.85z"/>
				</g>
			</g>
		</g>
		<g>
			<path class="st5" d="M76.01,597.18c-11.98,9.31-15.72,27.71-8.33,40.96c-7.96,0.52-14.53,6.66-18.59,13.53
				c-10.16,17.21-7.85,41.47,6.47,55.61c-13.18,8.99-18.35,26.3-17.83,42.25c0.36,11.09,3.1,22.31,9.33,31.5
				c19.95,29.41,67.43,28.23,91.87,6.15c20.38-18.41,23.98-44.69,14.08-69.6c-3.57-8.97-9.79-17.16-18.38-21.58
				c6.86-9.47,10.65-21.44,9-33.01c-1.64-11.58-9.17-22.48-20-26.87C137.36,607.68,101.02,577.74,76.01,597.18z"/>
			<rect x="87.49" y="794.05" class="st6" width="13.56" height="81.6"/>
			<path class="st7" d="M73.34,712.52c1.18-4.15,2.71-8.24,4.84-12c0.55-0.98,6.52-8.29,6.42-8.54
				c-12.51-32.78-8.33-71.31,10.28-100.97c-6.38-0.26-12.95,1.57-18.87,6.18c-11.98,9.31-15.72,27.71-8.33,40.96
				c-7.96,0.52-14.53,6.66-18.59,13.53c-10.16,17.21-7.85,41.47,6.47,55.61c-13.18,8.99-18.35,26.3-17.83,42.25
				c0.36,11.09,3.1,22.31,9.33,31.5c19.95,29.41,67.43,28.23,91.87,6.15c6.78-6.12,11.69-13.12,14.87-20.64
				c-7.41,5.99-15.75,10.66-24.96,13.06C87.67,790.3,63.36,747.77,73.34,712.52z"/>
		</g>
		<path class="st7" d="M99.78,876.67c0.34-6.23,3.32-12.26,8.06-16.32c-6.48,1.25-11.79,7.09-12.43,13.66
			c-2.51-5.52-5.61-11.58-11.36-13.5c4.19,4.16,7.06,9.64,8.08,15.46c-3.71-6.94-9.98-13.4-17.84-13.8
			c3.76,2.49,7.55,5.01,10.78,8.16c2.88,2.8,5.31,6.17,6.56,9.97c3.41-0.33,7.08,0.81,9,3.62c0.83-6.05,4.71-11.6,10.1-14.45
			C106.03,869.08,101.28,872.21,99.78,876.67z"/>
		<path class="st5" d="M92.19,877.66c0.34-6.23,3.32-12.26,8.06-16.32c-6.48,1.25-11.79,7.09-12.43,13.66
			c-2.51-5.52-5.61-11.58-11.36-13.5c4.19,4.16,7.06,9.64,8.08,15.46c-3.71-6.94-9.98-13.4-17.84-13.8
			c3.76,2.49,7.55,5.01,10.78,8.16c2.88,2.8,5.31,6.17,6.56,9.97c3.41-0.33,7.08,0.81,9,3.62c0.83-6.05,4.71-11.6,10.1-14.45
			C98.45,870.07,93.7,873.19,92.19,877.66z"/>
	</g>
</g>
</svg>
