<?xml version="1.0" encoding="utf-8"?>
<!-- Generator: Adobe Illustrator 16.0.0, SVG Export Plug-In . SVG Version: 6.00 Build 0)  -->
<!DOCTYPE svg PUBLIC "-//W3C//DTD SVG 1.1//EN" "http://www.w3.org/Graphics/SVG/1.1/DTD/svg11.dtd">
<svg version="1.1" id="Layer_1" xmlns="http://www.w3.org/2000/svg" xmlns:xlink="http://www.w3.org/1999/xlink" x="0px" y="0px"
	 width="1024px" height="1098.727px" viewBox="0 0 1024 1098.727" enable-background="new 0 0 1024 1098.727" xml:space="preserve">
<rect fill="#FFFFFF" width="1024.001" height="1024.002"/>
<g>
	<rect y="1024.002" fill="#132028" width="1024.001" height="74.725"/>
	<g>
		<g>
			<path fill="#FFFFFF" d="M303.33,1048.045h4.639c3.648,0,6.656,0.961,9.018,2.881c2.379,1.9,3.566,4.641,3.566,8.209
				c0,3.676-1.176,6.479-3.541,8.422c-2.354,1.945-5.4,2.916-9.129,2.916h-4.553V1048.045z M306.129,1067.922h0.975
				c1.455,0,2.82-0.15,4.113-0.441c1.283-0.283,2.414-0.775,3.377-1.459c0.963-0.68,1.732-1.576,2.303-2.674
				c0.578-1.104,0.863-2.469,0.863-4.094c0-1.602-0.285-2.967-0.85-4.119c-0.563-1.139-1.352-2.027-2.365-2.67
				c-1.012-0.645-2.125-1.123-3.35-1.424c-1.219-0.293-2.576-0.451-4.092-0.451h-0.975V1067.922z"/>
			<path fill="#FFFFFF" d="M324.66,1063.957c0.037,1.242,0.439,2.326,1.191,3.246c0.775,0.908,1.771,1.363,3.002,1.363
				c0.977,0,1.773-0.215,2.4-0.666c0.623-0.447,1.219-1.129,1.771-2.041l2.26,1.283c-0.654,1.189-1.549,2.117-2.693,2.793
				c-1.137,0.67-2.396,1.02-3.766,1.02c-2.078,0-3.748-0.697-4.994-2.082c-1.234-1.416-1.846-3.154-1.846-5.238
				c0-2.195,0.582-4.012,1.754-5.426c1.152-1.385,2.822-2.078,5.029-2.078c2.143,0,3.756,0.693,4.852,2.078
				c1.109,1.389,1.664,3.162,1.664,5.336v0.412H324.66z M332.609,1061.932c-0.162-1.07-0.563-1.926-1.234-2.543
				c-0.67-0.619-1.533-0.947-2.605-0.947c-0.516,0-0.996,0.09-1.441,0.264c-0.451,0.162-0.842,0.414-1.199,0.721
				c-0.336,0.326-0.625,0.707-0.855,1.127c-0.23,0.424-0.381,0.895-0.459,1.379H332.609z"/>
			<path fill="#FFFFFF" d="M343.17,1059.742c-0.404-0.82-0.992-1.225-1.781-1.225c-0.373,0-0.715,0.127-1.016,0.396
				c-0.299,0.266-0.443,0.602-0.443,0.971c0,0.359,0.111,0.658,0.342,0.898c0.229,0.252,0.539,0.486,0.932,0.709
				c0.262,0.113,0.459,0.213,0.6,0.273c0.135,0.074,0.367,0.176,0.686,0.314c0.158,0.076,0.299,0.15,0.42,0.182
				c0.111,0.043,0.203,0.068,0.262,0.121c0.99,0.449,1.775,0.984,2.352,1.574c0.576,0.6,0.861,1.389,0.861,2.387
				c0,1.311-0.475,2.406-1.428,3.297c-0.932,0.879-2.047,1.314-3.365,1.314c-0.531,0-1.051-0.078-1.541-0.227
				c-0.5-0.148-0.965-0.359-1.387-0.629c-0.428-0.277-0.799-0.59-1.135-0.979c-0.324-0.387-0.58-0.822-0.75-1.303l2.291-1.031
				c0.646,1.186,1.494,1.779,2.521,1.779c0.422,0,0.807-0.109,1.166-0.334c0.355-0.227,0.615-0.52,0.787-0.873
				c0.168-0.348,0.203-0.717,0.104-1.125s-0.412-0.799-0.924-1.146l-2.621-1.4c-0.459-0.236-0.848-0.463-1.188-0.707
				c-0.336-0.246-0.617-0.504-0.832-0.766c-0.219-0.273-0.383-0.564-0.488-0.893c-0.107-0.324-0.166-0.705-0.166-1.152
				c0-1.127,0.393-2.068,1.193-2.852c0.787-0.795,1.764-1.188,2.914-1.188c1.742,0,3.014,0.816,3.809,2.439L343.17,1059.742z"/>
			<path fill="#FFFFFF" d="M352.783,1050.18c0,0.5-0.18,0.922-0.539,1.289c-0.355,0.352-0.793,0.514-1.309,0.514
				c-0.52,0-0.949-0.162-1.309-0.514c-0.355-0.367-0.535-0.789-0.535-1.289c0-0.514,0.18-0.951,0.535-1.332
				c0.359-0.369,0.789-0.539,1.309-0.539c0.516,0,0.953,0.17,1.309,0.539C352.604,1049.229,352.783,1049.666,352.783,1050.18z
				 M352.27,1070.473h-2.68v-13.928h2.68V1070.473z"/>
			<path fill="#FFFFFF" d="M369.596,1070.211c0,2.617-0.504,4.639-1.494,6.092c-0.984,1.434-2.76,2.143-5.293,2.143
				c-1.961,0-3.571-0.564-4.821-1.699c-1.229-1.129-1.871-2.664-1.904-4.605h2.672c0,1.244,0.391,2.205,1.15,2.898
				c0.76,0.691,1.768,1.027,3.024,1.027c1.523,0,2.57-0.449,3.137-1.34c0.561-0.896,0.844-2.158,0.844-3.771v-2.656h-0.055
				c-0.559,0.836-1.244,1.486-2.068,1.951c-0.824,0.471-1.715,0.705-2.663,0.705c-2.066,0-3.691-0.725-4.883-2.176
				c-1.188-1.453-1.783-3.24-1.783-5.357c0-2.012,0.604-3.715,1.813-5.121c1.217-1.443,2.787-2.17,4.73-2.17
				c2.047,0,3.663,0.936,4.854,2.801h0.055v-2.387h2.686V1070.211z M362.541,1068.566c1.405,0,2.506-0.477,3.299-1.459
				c0.816-0.982,1.219-2.191,1.219-3.6c0-1.381-0.402-2.568-1.219-3.543c-0.793-0.967-1.895-1.447-3.299-1.447
				c-1.33,0-2.398,0.486-3.217,1.484c-0.787,0.973-1.189,2.133-1.189,3.506c0,1.408,0.402,2.609,1.189,3.572
				C360.143,1068.072,361.211,1068.566,362.541,1068.566z"/>
			<path fill="#FFFFFF" d="M375.758,1058.418h0.047c0.402-0.729,0.982-1.301,1.734-1.691c0.748-0.398,1.578-0.596,2.467-0.596
				c0.912,0,1.684,0.143,2.322,0.414c0.639,0.279,1.145,0.676,1.535,1.191c0.385,0.518,0.662,1.154,0.824,1.887
				c0.178,0.75,0.254,1.592,0.254,2.551v8.299h-2.67v-7.971c0-1.377-0.205-2.369-0.6-3.008c-0.396-0.656-1.219-0.977-2.467-0.977
				c-0.463,0-0.846,0.041-1.166,0.127c-0.318,0.09-0.59,0.223-0.83,0.383c-0.238,0.174-0.434,0.377-0.598,0.58
				c-0.152,0.219-0.307,0.459-0.439,0.723c-0.061,0.133-0.121,0.311-0.166,0.531c-0.051,0.211-0.092,0.441-0.131,0.676
				c-0.041,0.223-0.078,0.447-0.096,0.678c-0.014,0.236-0.021,0.408-0.021,0.551v1.314v6.393h-2.684v-13.928h2.684V1058.418z"/>
			<path fill="#FFFFFF" d="M397.026,1044.645h2.678v14.223h0.057c1.234-1.822,2.848-2.736,4.855-2.736
				c1.945,0,3.518,0.727,4.732,2.17c1.207,1.406,1.814,3.109,1.814,5.121c0,2.117-0.607,3.904-1.787,5.357
				c-1.197,1.451-2.814,2.176-4.877,2.176c-0.949,0-1.842-0.234-2.67-0.705c-0.82-0.465-1.51-1.115-2.068-1.951h-0.057v2.174h-2.678
				V1044.645z M403.954,1068.566c1.418,0,2.516-0.477,3.313-1.459c0.813-0.982,1.211-2.191,1.211-3.6
				c0-1.381-0.398-2.568-1.211-3.543c-0.797-0.967-1.895-1.447-3.313-1.447c-1.328,0-2.396,0.486-3.211,1.484
				c-0.795,0.973-1.188,2.133-1.188,3.506c0,1.408,0.393,2.609,1.188,3.572C401.557,1068.072,402.625,1068.566,403.954,1068.566z"/>
			<path fill="#FFFFFF" d="M411.547,1056.545h3.123l4.699,8.844l4.371-8.844h3.012l-11.277,21.9h-3.037l5.477-10.355
				L411.547,1056.545z"/>
			<path fill="#FFFFFF" d="M440.26,1064.844l-2.559,5.629h-3.008l10.715-23.387l10.705,23.387h-3l-2.553-5.629H440.26z
				 M445.409,1053.219l-3.996,9.072h7.979L445.409,1053.219z"/>
			<path fill="#FFFFFF" d="M460.495,1070.473h-2.676v-25.828h2.676V1070.473z"/>
			<path fill="#FFFFFF" d="M467.1,1070.473h-2.678v-25.828h2.678V1070.473z"/>
			<path fill="#FFFFFF" d="M477.274,1059.826v2.227h-6.516v-2.227H477.274z"/>
			<path fill="#FFFFFF" d="M487.678,1047.355c-0.828-0.377-1.42-0.564-1.775-0.564c-0.58,0-0.992,0.174-1.246,0.545
				c-0.262,0.367-0.439,0.814-0.539,1.357c-0.059,0.393-0.088,0.707-0.111,0.936c-0.004,0.234-0.004,0.543-0.004,0.945v5.971h3.676
				v2.498h-3.676v11.43h-2.688v-11.43H480.1v-2.498h1.215v-6.777c0-3.652,1.502-5.482,4.504-5.482c0.652,0,1.273,0.129,1.859,0.359
				V1047.355z"/>
			<path fill="#FFFFFF" d="M491.817,1058.803h0.09c0.34-0.826,0.826-1.484,1.492-1.955c0.66-0.475,1.432-0.717,2.322-0.717
				c0.74,0,1.463,0.227,2.211,0.688l-1.225,2.436c-0.439-0.387-0.986-0.561-1.637-0.561c-1.381,0-2.285,0.555-2.742,1.664
				c-0.199,0.516-0.338,1.027-0.404,1.531c-0.063,0.498-0.107,1.092-0.107,1.746v6.838h-2.668v-13.928h2.668V1058.803z"/>
			<path fill="#FFFFFF" d="M501.024,1063.957c0.031,1.242,0.434,2.326,1.193,3.246c0.768,0.908,1.762,1.363,2.996,1.363
				c0.961,0,1.775-0.215,2.396-0.666c0.625-0.447,1.217-1.129,1.766-2.041l2.258,1.283c-0.646,1.189-1.543,2.117-2.684,2.793
				c-1.141,0.67-2.4,1.02-3.768,1.02c-2.074,0-3.746-0.697-4.988-2.082c-1.234-1.416-1.85-3.154-1.85-5.238
				c0-2.195,0.586-4.012,1.752-5.426c1.15-1.385,2.822-2.078,5.027-2.078c2.143,0,3.764,0.693,4.861,2.078
				c1.1,1.389,1.648,3.162,1.648,5.336v0.412H501.024z M508.965,1061.932c-0.162-1.07-0.572-1.926-1.234-2.543
				c-0.664-0.619-1.529-0.947-2.607-0.947c-0.516,0-0.992,0.09-1.443,0.264c-0.439,0.162-0.844,0.414-1.182,0.721
				c-0.354,0.326-0.641,0.707-0.879,1.127c-0.221,0.424-0.373,0.895-0.447,1.379H508.965z"/>
			<path fill="#FFFFFF" d="M515.552,1063.957c0.033,1.242,0.428,2.326,1.182,3.246c0.766,0.908,1.775,1.363,3.002,1.363
				c0.975,0,1.775-0.215,2.393-0.666c0.631-0.447,1.215-1.129,1.777-2.041l2.254,1.283c-0.643,1.189-1.535,2.117-2.689,2.793
				c-1.146,0.67-2.395,1.02-3.766,1.02c-2.09,0-3.748-0.697-5.006-2.082c-1.221-1.416-1.833-3.154-1.833-5.238
				c0-2.195,0.579-4.012,1.758-5.426c1.145-1.385,2.826-2.078,5.025-2.078c2.133,0,3.756,0.693,4.842,2.078
				c1.121,1.389,1.668,3.162,1.668,5.336v0.412H515.552z M523.489,1061.932c-0.156-1.07-0.576-1.926-1.248-2.543
				c-0.658-0.619-1.521-0.947-2.592-0.947c-0.523,0-0.996,0.09-1.449,0.264c-0.443,0.162-0.834,0.414-1.182,0.721
				c-0.354,0.326-0.646,0.707-0.863,1.127c-0.232,0.424-0.387,0.895-0.467,1.379H523.489z"/>
			<path fill="#FFFFFF" d="M534.825,1059.826v2.227h-6.523v-2.227H534.825z"/>
			<path fill="#FFFFFF" d="M548.718,1068.299h-0.063c-0.553,0.836-1.244,1.486-2.066,1.951c-0.826,0.471-1.717,0.705-2.66,0.705
				c-2.068,0-3.693-0.725-4.877-2.176c-1.193-1.453-1.799-3.24-1.799-5.357c0-2.012,0.609-3.715,1.822-5.121
				c1.213-1.443,2.785-2.17,4.732-2.17c2.002,0,3.619,0.914,4.848,2.736h0.063v-14.223h2.672v25.828h-2.672V1068.299z
				 M544.343,1068.566c1.404,0,2.514-0.477,3.299-1.459c0.814-0.982,1.227-2.191,1.227-3.6c0-1.381-0.412-2.568-1.227-3.543
				c-0.785-0.967-1.895-1.447-3.299-1.447c-1.332,0-2.402,0.486-3.213,1.484c-0.793,0.973-1.189,2.133-1.189,3.506
				c0,1.408,0.396,2.609,1.189,3.572C541.94,1068.072,543.011,1068.566,544.343,1068.566z"/>
			<path fill="#FFFFFF" d="M555.769,1058.273c1.451-1.426,3.217-2.143,5.305-2.143c2.08,0,3.832,0.717,5.25,2.143
				c1.455,1.418,2.174,3.197,2.174,5.271c0,2.076-0.719,3.83-2.174,5.275c-1.418,1.418-3.17,2.135-5.25,2.135
				c-2.088,0-3.854-0.717-5.305-2.135c-1.43-1.445-2.145-3.199-2.145-5.275C553.624,1061.471,554.339,1059.691,555.769,1058.273z
				 M556.3,1063.545c0,1.281,0.48,2.424,1.412,3.406c0.906,0.971,2.035,1.439,3.361,1.439c1.299,0,2.428-0.469,3.354-1.439
				c0.936-0.982,1.398-2.125,1.398-3.406c0-1.313-0.463-2.463-1.398-3.426c-0.926-0.955-2.055-1.426-3.354-1.426
				c-1.326,0-2.455,0.471-3.361,1.426C556.78,1061.082,556.3,1062.232,556.3,1063.545z"/>
			<path fill="#FFFFFF" d="M575.71,1065.424l4.094-9.646l4.082,9.646l4.055-8.879h3.023l-7.078,14.41l-4.082-9.313l-4.094,9.313
				l-7.084-14.41h3.033L575.71,1065.424z"/>
			<path fill="#FFFFFF" d="M594.991,1058.418h0.057c0.395-0.729,0.969-1.301,1.721-1.691c0.758-0.398,1.582-0.596,2.469-0.596
				c0.916,0,1.697,0.143,2.328,0.414c0.633,0.279,1.141,0.676,1.533,1.191c0.385,0.518,0.662,1.154,0.822,1.887
				c0.172,0.75,0.256,1.592,0.256,2.551v8.299h-2.678v-7.971c0-1.377-0.182-2.369-0.592-3.008c-0.396-0.656-1.213-0.977-2.477-0.977
				c-0.447,0-0.834,0.041-1.158,0.127c-0.309,0.09-0.592,0.223-0.832,0.383c-0.236,0.174-0.436,0.377-0.592,0.58
				c-0.164,0.219-0.313,0.459-0.441,0.723c-0.059,0.133-0.119,0.311-0.168,0.531c-0.053,0.211-0.102,0.441-0.133,0.676
				c-0.043,0.223-0.063,0.447-0.098,0.678c-0.006,0.236-0.018,0.408-0.018,0.551v1.314v6.393h-2.68v-13.928h2.68V1058.418z"/>
			<path fill="#FFFFFF" d="M610.669,1070.473h-2.684v-25.828h2.684V1070.473z"/>
			<path fill="#FFFFFF" d="M615.368,1058.273c1.436-1.426,3.211-2.143,5.301-2.143c2.08,0,3.826,0.717,5.27,2.143
				c1.441,1.418,2.158,3.197,2.158,5.271c0,2.076-0.717,3.83-2.158,5.275c-1.443,1.418-3.189,2.135-5.27,2.135
				c-2.09,0-3.865-0.717-5.301-2.135c-1.438-1.445-2.146-3.199-2.146-5.275C613.222,1061.471,613.931,1059.691,615.368,1058.273z
				 M615.905,1063.545c0,1.281,0.469,2.424,1.395,3.406c0.912,0.971,2.037,1.439,3.369,1.439c1.301,0,2.426-0.469,3.365-1.439
				c0.924-0.982,1.389-2.125,1.389-3.406c0-1.313-0.465-2.463-1.389-3.426c-0.939-0.955-2.064-1.426-3.365-1.426
				c-1.332,0-2.457,0.471-3.369,1.426C616.374,1061.082,615.905,1062.232,615.905,1063.545z"/>
			<path fill="#FFFFFF" d="M643.608,1070.473h-2.684v-2.174h-0.055c-1.191,1.762-2.773,2.656-4.736,2.656
				c-2.041,0-3.668-0.725-4.879-2.176c-1.189-1.453-1.785-3.24-1.785-5.357c0-2.012,0.6-3.715,1.818-5.121
				c1.207-1.443,2.797-2.17,4.752-2.17c1.992,0,3.6,0.914,4.83,2.736h0.055v-2.322h2.684V1070.473z M636.552,1068.566
				c1.42,0,2.506-0.477,3.305-1.459c0.811-0.982,1.219-2.191,1.219-3.6c0-1.381-0.408-2.568-1.219-3.543
				c-0.799-0.967-1.885-1.447-3.305-1.447c-1.326,0-2.4,0.486-3.207,1.484c-0.797,0.973-1.201,2.133-1.201,3.506
				c0,1.408,0.404,2.609,1.201,3.572C634.151,1068.072,635.226,1068.566,636.552,1068.566z"/>
			<path fill="#FFFFFF" d="M657.466,1068.299h-0.051c-0.561,0.836-1.26,1.486-2.07,1.951c-0.824,0.471-1.709,0.705-2.662,0.705
				c-2.068,0-3.697-0.725-4.889-2.176c-1.186-1.453-1.783-3.24-1.783-5.357c0-2.012,0.617-3.715,1.818-5.121
				c1.211-1.443,2.785-2.17,4.738-2.17c2,0,3.605,0.914,4.848,2.736h0.051v-14.223h2.684v25.828h-2.684V1068.299z M653.097,1068.566
				c1.404,0,2.5-0.477,3.295-1.459c0.814-0.982,1.223-2.191,1.223-3.6c0-1.381-0.408-2.568-1.223-3.543
				c-0.795-0.967-1.891-1.447-3.295-1.447c-1.332,0-2.404,0.486-3.213,1.484c-0.793,0.973-1.193,2.133-1.193,3.506
				c0,1.408,0.4,2.609,1.193,3.572C650.692,1068.072,651.765,1068.566,653.097,1068.566z"/>
			<path fill="#FFFFFF" d="M667.825,1069.223c0,0.477-0.166,0.877-0.492,1.215c-0.35,0.342-0.762,0.518-1.238,0.518
				s-0.883-0.176-1.207-0.518c-0.346-0.338-0.514-0.738-0.514-1.215c0-0.455,0.168-0.861,0.514-1.205
				c0.324-0.344,0.73-0.514,1.207-0.514s0.889,0.17,1.238,0.514C667.659,1068.361,667.825,1068.768,667.825,1069.223z"/>
			<path fill="#FFFFFF" d="M682.462,1060.502c-1.107-1.248-2.443-1.873-3.979-1.873c-1.297,0-2.404,0.49-3.309,1.459
				c-0.9,0.984-1.328,2.143-1.328,3.42c0,1.453,0.428,2.633,1.328,3.539c0.934,0.941,2.096,1.404,3.475,1.404
				c1.43,0,2.705-0.633,3.813-1.844v3.418c-1.15,0.613-2.428,0.93-3.836,0.93c-2.064,0-3.834-0.717-5.303-2.123
				c-1.445-1.379-2.16-3.113-2.16-5.197c0-2.143,0.715-3.943,2.16-5.361c1.453-1.426,3.271-2.143,5.449-2.143
				c1.438,0,2.662,0.309,3.689,0.914V1060.502z"/>
			<path fill="#FFFFFF" d="M686.241,1058.273c1.451-1.426,3.219-2.143,5.297-2.143c2.082,0,3.848,0.717,5.262,2.143
				c1.459,1.418,2.174,3.197,2.174,5.271c0,2.076-0.715,3.83-2.174,5.275c-1.414,1.418-3.18,2.135-5.262,2.135
				c-2.078,0-3.846-0.717-5.297-2.135c-1.428-1.445-2.145-3.199-2.145-5.275C684.097,1061.471,684.813,1059.691,686.241,1058.273z
				 M686.78,1063.545c0,1.281,0.469,2.424,1.4,3.406c0.898,0.971,2.035,1.439,3.357,1.439c1.307,0,2.436-0.469,3.361-1.439
				c0.936-0.982,1.398-2.125,1.398-3.406c0-1.313-0.463-2.463-1.398-3.426c-0.926-0.955-2.055-1.426-3.361-1.426
				c-1.322,0-2.459,0.471-3.357,1.426C687.249,1061.082,686.78,1062.232,686.78,1063.545z"/>
			<path fill="#FFFFFF" d="M704.009,1058.301h0.059c0.395-0.637,0.912-1.152,1.59-1.559c0.666-0.414,1.363-0.611,2.09-0.611
				c1.736,0,3.07,0.82,4.027,2.473c0.432-0.754,1.037-1.359,1.803-1.811c0.756-0.443,1.594-0.662,2.473-0.662
				c3.086,0,4.617,2.004,4.617,6.004v8.338h-2.672v-7.889c0-0.352-0.012-0.707-0.055-1.047c-0.02-0.359-0.086-0.695-0.156-1.012
				c-0.086-0.338-0.197-0.641-0.357-0.918c-0.162-0.264-0.385-0.525-0.654-0.74c-0.357-0.238-0.818-0.35-1.365-0.35
				c-0.566,0-1.031,0.111-1.426,0.35c-0.389,0.215-0.674,0.492-0.887,0.809c-0.211,0.33-0.377,0.75-0.486,1.242
				c-0.115,0.492-0.195,0.947-0.227,1.344c-0.037,0.391-0.045,0.85-0.045,1.373v6.838h-2.684v-7.381c0-0.473,0-0.861-0.02-1.184
				c-0.027-0.33-0.086-0.721-0.186-1.195c-0.094-0.516-0.221-0.887-0.383-1.137c-0.162-0.275-0.414-0.512-0.738-0.738
				c-0.35-0.213-0.746-0.32-1.223-0.32c-1.369,0-2.254,0.586-2.654,1.773c-0.178,0.57-0.293,1.08-0.354,1.586
				c-0.063,0.484-0.088,1.07-0.088,1.758v6.838h-2.684v-13.928h2.684V1058.301z"/>
		</g>
		<g>
			<g>
				<path fill="#FFFFFF" d="M240.912,1062.254c12.637,0,25.266,0,37.9,0c1.146,0,1.146-1.766,0-1.766c-12.635,0-25.264,0-37.9,0
					C239.77,1060.488,239.77,1062.254,240.912,1062.254L240.912,1062.254z"/>
			</g>
			<g>
				<path fill="#FFFFFF" d="M745.185,1062.254c12.633,0,25.268,0,37.893,0c1.156,0,1.156-1.766,0-1.766c-12.625,0-25.26,0-37.893,0
					C744.038,1060.488,744.038,1062.254,745.185,1062.254L745.185,1062.254z"/>
			</g>
		</g>
	</g>
</g>
<g>
	<g>
		
			<linearGradient id="SVGID_1_" gradientUnits="userSpaceOnUse" x1="-149.0068" y1="492.8262" x2="528.6865" y2="492.8262" gradientTransform="matrix(1 0 -0.2009 1.0457 384.2687 -87.7258)">
			<stop  offset="0" style="stop-color:#AA80F9"/>
			<stop  offset="0.9964" style="stop-color:#6165D7"/>
		</linearGradient>
		<path fill="url(#SVGID_1_)" d="M571.688,170.983l-393.032,35.93c23.747,14.67,60.494,44.071,82.614,103.639
			c43.55,117.276-4.836,226.512,47.505,305.394c13.926,20.988,43.954,58.998,90.344,68.316l375.354-51.176
			c-122.91-35.635-156.248-103.008-162.66-160.45c-6.434-57.646,11.871-126.596-10.055-219.377
			C592.79,215.317,580.552,188.018,571.688,170.983z"/>
		<path fill="#FFFFFF" d="M227.243,107.02c115.414-7.247,230.828-14.494,346.242-21.74c15.537,13.166,37.361,36.572,51.582,77.059
			c32.727,93.179-5.395,185.335,5.619,275.905c7.025,57.758,36.002,130.116,139.797,178.481
			c-123.934,16.219-247.867,32.438-371.8,48.654c-25.606-9.809-59.737-30.199-79.486-77.639
			c-20.938-50.297-6.277-84.322-13.491-242.422c-5.077-111.268-15.062-155.152-35.86-190.333
			C255.445,130.625,239.214,115.87,227.243,107.02z"/>
		<g>
			<path fill="#D8DEE8" d="M605.581,429.727c0.074,0.912,0.15,1.824,0.232,2.737c0.076,0.858-0.543,1.621-1.4,1.716l-270.719,29.734
				c-0.942,0.104-1.764-0.632-1.755-1.581c0.008-0.918,0.016-1.845,0.024-2.779c0.007-0.802,0.611-1.48,1.41-1.567l270.46-29.706
				C604.72,428.183,605.509,428.838,605.581,429.727z"/>
			<path fill="#D8DEE8" d="M604.497,400.588c-0.002,0.921-0.002,1.843,0,2.765c0.004,0.812-0.604,1.494-1.412,1.58l-269.307,28.682
				c-0.933,0.099-1.746-0.625-1.75-1.562c-0.003-0.918-0.008-1.843-0.013-2.774c-0.004-0.813,0.606-1.501,1.415-1.588
				l269.319-28.683C603.687,398.908,604.501,399.645,604.497,400.588z"/>
			<path fill="#D8DEE8" d="M609.448,458.569c0.17,0.902,0.346,1.802,0.527,2.7c0.182,0.91-0.449,1.78-1.371,1.884L333.329,494.28
				c-0.946,0.106-1.771-0.639-1.761-1.591c0.012-0.917,0.023-1.843,0.036-2.78c0.01-0.798,0.613-1.468,1.405-1.557l274.709-31.063
				C608.542,457.195,609.294,457.754,609.448,458.569z"/>
			<path fill="#D8DEE8" d="M564.425,610.83l124.834-15.988c0.535-0.068,1.074,0.143,1.424,0.576c0.67,0.826,1.5,1.477,2.436,1.984
				c1.436,0.781,0.98,2.795-0.51,2.986L570.101,616.08C568.206,614.33,566.315,612.582,564.425,610.83z"/>
			<path fill="#D8DEE8" d="M392.534,632.846l140.997-18.059c1.826,1.768,3.666,3.523,5.514,5.27l-141.792,18.162
				c-0.311,0.039-0.63-0.014-0.912-0.152c-1.485-0.729-2.942-1.484-4.375-2.262C390.622,635.074,391.016,633.041,392.534,632.846z"
				/>
			<path fill="#D8DEE8" d="M605.513,371.242c-0.057,0.931-0.115,1.861-0.168,2.793c-0.045,0.774-0.641,1.401-1.412,1.481
				l-270.501,27.882c-0.922,0.095-1.727-0.614-1.746-1.541c-0.017-0.917-0.035-1.84-0.053-2.768
				c-0.017-0.824,0.601-1.527,1.42-1.611l270.724-27.905C604.747,369.474,605.571,370.268,605.513,371.242z"/>
			<path fill="#D8DEE8" d="M642.907,542.511c0.561,0.854,1.129,1.703,1.703,2.551c0.668,0.982,0.068,2.319-1.109,2.463
				l-298.359,36.491c-0.683,0.084-1.345-0.279-1.633-0.904c-0.403-0.879-0.8-1.766-1.188-2.662
				c-0.424-0.973,0.201-2.082,1.255-2.211l297.824-36.427C641.995,541.738,642.577,542.009,642.907,542.511z"/>
			<path fill="#D8DEE8" d="M627.552,515.054c0.408,0.874,0.824,1.744,1.244,2.611c0.475,0.98-0.148,2.137-1.229,2.266
				l-291.708,34.803c-0.831,0.098-1.602-0.463-1.748-1.287c-0.163-0.918-0.315-1.844-0.459-2.775
				c-0.137-0.883,0.492-1.704,1.379-1.809l290.904-34.707C626.612,514.074,627.261,514.437,627.552,515.054z"/>
			<path fill="#D8DEE8" d="M616.604,487.039c0.283,0.889,0.57,1.775,0.861,2.659c0.314,0.953-0.316,1.954-1.314,2.07l-282.84,32.876
				c-0.925,0.107-1.746-0.602-1.766-1.534c-0.02-0.916-0.037-1.845-0.05-2.786c-0.013-0.813,0.594-1.506,1.4-1.599l282.024-32.782
				C615.671,485.856,616.376,486.317,616.604,487.039z"/>
			<path fill="#D8DEE8" d="M607.872,341.798c-0.088,0.932-0.176,1.866-0.262,2.8c-0.068,0.754-0.664,1.355-1.416,1.43
				l-273.556,27.235c-0.911,0.09-1.708-0.605-1.738-1.52c-0.031-0.916-0.062-1.836-0.094-2.761
				c-0.029-0.834,0.594-1.552,1.425-1.634l273.908-27.271C607.13,339.979,607.964,340.807,607.872,341.798z"/>
			<path fill="#D8DEE8" d="M599.708,166.591c0.703-0.054,1.359,0.364,1.605,1.026c0.336,0.9,0.664,1.805,0.984,2.719
				c0.002,0.006,0.006,0.013,0.008,0.02c0.342,0.976-0.348,2.009-1.379,2.088l-287.575,21.906c-0.753,0.057-1.44-0.432-1.642-1.16
				c-0.252-0.905-0.507-1.802-0.765-2.693c-0.28-0.965,0.395-1.938,1.397-2.015L599.708,166.591z"/>
			<path fill="#D8DEE8" d="M609.435,196.024c0.189,0.916,0.373,1.831,0.553,2.747c0.18,0.926-0.492,1.803-1.434,1.879
				l-288.523,23.188c-0.811,0.064-1.537-0.501-1.683-1.301c-0.167-0.913-0.334-1.818-0.504-2.717
				c-0.175-0.925,0.488-1.792,1.427-1.868l288.48-23.183C608.548,194.706,609.271,195.244,609.435,196.024z"/>
			<path fill="#D8DEE8" d="M587.438,143.086l-284.49,21.627c-0.67,0.051-1.297-0.332-1.565-0.948
				c-3.234-7.419-6.807-14.371-10.764-21.063c-1.993-3.373-4.068-6.655-6.217-9.854c-0.682-1.016-0.019-2.388,1.202-2.47
				l279.958-18.866c0.461-0.031,0.914,0.14,1.24,0.469c8.342,8.454,15.652,18.051,21.895,28.735
				C589.282,141.722,588.601,142.998,587.438,143.086z"/>
			<path fill="#D8DEE8" d="M610.753,312.343c-0.092,0.933-0.182,1.866-0.273,2.801c-0.072,0.754-0.672,1.353-1.426,1.425
				l-277.626,26.635c-0.9,0.086-1.689-0.603-1.731-1.506c-0.044-0.924-0.087-1.844-0.131-2.759c-0.041-0.844,0.589-1.568,1.43-1.648
				l278.028-26.673C610.015,310.521,610.849,311.352,610.753,312.343z"/>
			<path fill="#D8DEE8" d="M613.272,282.97c-0.064,0.929-0.131,1.86-0.199,2.791c-0.057,0.773-0.666,1.394-1.438,1.466
				l-281.838,25.989c-0.889,0.081-1.669-0.591-1.725-1.482c-0.058-0.922-0.116-1.84-0.174-2.754
				c-0.055-0.855,0.58-1.595,1.433-1.674l282.212-26.023C612.517,281.192,613.343,281.995,613.272,282.97z"/>
			<path fill="#D8DEE8" d="M614.521,253.745c-0.008,0.929-0.021,1.858-0.037,2.787c-0.016,0.81-0.641,1.479-1.447,1.55
				L327.587,283.31c-0.872,0.078-1.64-0.573-1.716-1.446c-0.079-0.92-0.16-1.835-0.241-2.745c-0.078-0.872,0.565-1.636,1.438-1.713
				l285.729-25.253C613.728,252.07,614.532,252.809,614.521,253.745z"/>
			<path fill="#D8DEE8" d="M613.55,224.746c0.076,0.923,0.146,1.846,0.213,2.77c0.063,0.865-0.586,1.618-1.449,1.691
				l-287.816,24.301c-0.847,0.072-1.599-0.545-1.703-1.39c-0.114-0.917-0.229-1.828-0.344-2.733
				c-0.115-0.894,0.538-1.698,1.436-1.774l287.949-24.313C612.708,223.226,613.479,223.873,613.55,224.746z"/>
		</g>
		<path fill="#FC79AB" d="M532.144,630.422l-49.987-30.959c-16.614-10.385-33.277-20.721-49.565-31.541
			c-4.042-2.719-8.135-5.459-11.889-8.385c-0.459-0.365-0.913-0.738-1.319-1.105c-0.201-0.182-0.393-0.365-0.541-0.525
			c-0.067-0.072-0.131-0.148-0.146-0.172c-0.026-0.029,0.021,0.02,0.021,0.041c0.034,0.057,0.06,0.119,0.078,0.182
			c0.025,0.066,0.09,0.336,0.07,0.5c0.018,0.291-0.15,0.742-0.333,0.973c-0.233,0.303-0.479,0.436-0.552,0.475
			c-0.165,0.08-0.246,0.098-0.269,0.107c-0.042,0.016-0.118,0.021-0.106,0.023c-0.021,0.006-0.036,0.002,0.001,0.004
			c0.017-0.002,0.055,0,0.101,0.006c0.177,0.012,0.423,0.043,0.679,0.094c0.511,0.094,1.064,0.236,1.612,0.391
			c2.211,0.641,4.433,1.527,6.58,2.518c4.296,2.002,8.392,4.492,11.918,7.539c3.505,3.033,6.462,6.721,7.772,10.9
			c1.383,4.182,0.76,8.619-1.255,12.666c-1.995,4.082-5.047,7.793-8.088,11.67c-1.523,1.943-3.061,3.949-4.431,6.182
			c-1.366,2.215-2.594,4.742-3.054,7.646c-0.242,1.445-0.187,2.971,0.054,4.439c0.159,0.729,0.313,1.461,0.589,2.141
			c0.225,0.709,0.55,1.355,0.88,1.998c1.344,2.57,3.296,4.588,5.364,6.281c4.19,3.361,8.975,5.51,13.846,7.053
			c4.885,1.545,9.924,2.436,14.992,2.814c10.12,0.742,20.487-0.621,29.995-4.623c4.754-2.021,9.153-4.73,13.174-7.859
			c4.024-3.137,7.697-6.701,10.904-10.725c1.596-2.018,3.088-4.139,4.355-6.461c1.258-2.322,2.369-4.809,2.848-7.727
			c0.225-1.453,0.285-3.049-0.141-4.723c-0.117-0.416-0.223-0.832-0.42-1.242l-0.273-0.613c-0.107-0.211-0.262-0.443-0.402-0.656
			c-0.578-0.867-1.414-1.613-2.262-2.053c-1.725-0.941-3.305-1.078-4.732-1.164c-1.438-0.063-2.779,0.047-4.076,0.203
			c-5.166,0.643-9.903,1.93-14.67,3.154c-4.739,1.291-9.447,2.586-14.18,3.781c-4.728,1.207-9.479,2.297-14.266,3.26
			c-4.793,0.91-9.613,1.699-14.459,2.293c-9.69,1.178-19.448,1.83-29.207,1.895c-9.755,0.088-19.514-0.404-29.188-1.566
			l-0.005-0.002c-1.396-0.168-2.663,0.828-2.831,2.223c-0.167,1.396,0.827,2.662,2.223,2.83c0.098,0.012,0.199,0.018,0.295,0.02
			c9.892,0.031,19.75-0.063,29.588-0.541c4.917-0.266,9.833-0.514,14.733-0.965c2.454-0.186,4.9-0.432,7.35-0.654
			c2.444-0.277,4.894-0.508,7.333-0.834c9.762-1.189,19.532-2.484,29.239-4.227c4.85-0.869,9.678-1.842,14.479-2.795
			c2.397-0.486,4.78-1.002,7.152-1.447c2.367-0.443,4.722-0.902,6.999-1.133c1.135-0.125,2.248-0.172,3.26-0.137
			c1,0.033,1.932,0.215,2.357,0.482c0.625,0.125,1.184,1.883,0.826,3.793c-0.299,1.936-1.166,4.02-2.242,5.988
			c-1.072,1.986-2.404,3.893-3.842,5.719c-2.896,3.648-6.295,6.967-9.993,9.863c-3.706,2.893-7.72,5.365-11.988,7.189
			c-8.58,3.645-18.177,4.92-27.578,4.34c-4.705-0.311-9.39-1.1-13.864-2.473c-4.461-1.357-8.781-3.307-12.272-6.07
			c-3.497-2.727-5.908-6.5-5.256-10.377c0.288-1.953,1.174-3.967,2.361-5.914c1.176-1.955,2.601-3.865,4.074-5.797
			c2.936-3.861,6.157-7.801,8.434-12.578c1.143-2.371,1.953-5.012,2.222-7.75c0.283-2.738-0.063-5.545-0.924-8.121
			c-0.847-2.59-2.185-4.955-3.773-7.055c-1.589-2.107-3.429-3.961-5.393-5.621c-3.942-3.314-8.341-5.898-12.947-7.979
			c-2.314-1.033-4.667-1.943-7.172-2.639c-0.633-0.168-1.269-0.326-1.963-0.447c-0.348-0.061-0.71-0.111-1.145-0.137
			c-0.106-0.006-0.22-0.01-0.358-0.006c-0.115-0.002-0.282,0.01-0.455,0.033c-0.065,0.006-0.215,0.035-0.332,0.066
			c-0.1,0.023-0.252,0.066-0.484,0.184c-0.147,0.066-0.45,0.248-0.732,0.613c-0.242,0.281-0.409,0.822-0.408,1.184
			c-0.006,0.236,0.059,0.584,0.111,0.723c0.047,0.135,0.104,0.266,0.166,0.395c0.084,0.148,0.199,0.338,0.271,0.426
			c0.166,0.225,0.305,0.377,0.446,0.527c0.274,0.287,0.53,0.521,0.785,0.748c0.509,0.447,1.009,0.846,1.513,1.236
			c4.017,3.051,8.116,5.709,12.236,8.41c8.246,5.35,16.578,10.523,24.929,15.67c8.356,5.135,16.729,10.236,25.139,15.277
			c16.82,10.076,33.638,20.148,50.603,29.977c0.375,0.219,0.857,0.092,1.076-0.283C532.626,631.119,532.505,630.646,532.144,630.422
			z"/>
	</g>
	<g>
		<g>
			<g>
				<g>
					<g>
						<g>
							<path fill="#FDB735" d="M246.542,853.945l-0.544-0.117c0.116-0.541,11.406-55.154-12.252-148.365l0.54-0.135
								C257.979,798.676,246.66,853.402,246.542,853.945z"/>
						</g>
					</g>
					<path fill="#FDB735" d="M223.062,710.271c0,0,1.233,15.699,16.537,19.361C239.599,729.633,236.709,713.057,223.062,710.271z"/>
					<path fill="#FDB735" d="M248.242,705.68c0,0-13.035,8.838-8.647,23.953C239.595,729.633,252.572,718.918,248.242,705.68z"/>
					<path fill="#FDB735" d="M228.028,683.988c0,0-5.407,14.791,6.988,24.488C235.016,708.477,239.28,692.195,228.028,683.988z"/>
					<path fill="#FDB735" d="M224.377,739.541c0,0,1.584,22.268,21.25,27.465C245.626,767.006,241.912,743.492,224.377,739.541z"/>
					<path fill="#FDB735" d="M256.731,733.027c0,0-16.747,12.539-11.108,33.979C245.623,767.006,262.295,751.809,256.731,733.027z"
						/>
					<path fill="#FDB735" d="M227.717,771.711c0,0,1.584,22.27,21.25,27.463C248.967,799.174,245.252,775.66,227.717,771.711z"/>
					<path fill="#FDB735" d="M260.071,765.199c0,0-16.748,12.535-11.109,33.975C248.962,799.174,265.635,783.979,260.071,765.199z"
						/>
				</g>
				<g>
					<path fill="#FF811B" d="M182.056,851.48c0,0-26.845-73.215-10.168-81.352c16.676-8.135,79.316,27.66,84.197,68.742
						c4.881,41.08-23.593,53.689-27.252,51.248c-3.661-2.438-15.863-3.254-19.931-7.727
						C204.835,877.918,182.056,851.48,182.056,851.48z"/>
					<g>
						<g>
							<g>
								<path fill="#FEFEFE" d="M180.045,782.586c15.911,6.918,25.593,23.857,33.62,38.391c4.989,9.027,8.596,18.139,11.57,28.012
									c3.255,10.805,7.651,21.211,10.997,31.982c0.291,0.936,1.763,0.535,1.471-0.406c-3.561-11.459-8.155-22.555-11.62-34.055
									c-2.818-9.354-6.429-17.746-11.1-26.303c-8.03-14.715-18.099-31.951-34.169-38.938
									C179.922,780.881,179.144,782.193,180.045,782.586L180.045,782.586z"/>
							</g>
						</g>
						<g>
							<g>
								<path fill="#FEFEFE" d="M186.938,807.906c7.351,0.07,14.535,1.049,21.173,4.371c0.877,0.439,1.649-0.877,0.77-1.318
									c-6.881-3.443-14.318-4.504-21.943-4.578C185.953,806.371,185.954,807.896,186.938,807.906L186.938,807.906z"/>
							</g>
						</g>
						<g>
							<g>
								<path fill="#FEFEFE" d="M217.192,795.123c2.665,4.215,2.125,9.291,1.956,14.051c-0.21,5.902-0.262,11.256-1.422,17.09
									c-0.191,0.959,1.278,1.367,1.47,0.404c1.192-5.986,1.369-11.369,1.478-17.494c0.09-5.098,0.681-10.32-2.165-14.82
									C217.985,793.525,216.664,794.287,217.192,795.123L217.192,795.123z"/>
							</g>
						</g>
						<g>
							<g>
								<path fill="#FEFEFE" d="M183.024,831.121c2.654,4.271,9.418,5.236,13.881,6.209c8.489,1.85,16.712,2.703,25.419,2.709
									c0.983,0.002,0.983-1.523,0-1.523c-7.696-0.008-14.918-0.734-22.478-2.15c-4.56-0.854-12.823-1.697-15.506-6.014
									C183.824,829.518,182.504,830.283,183.024,831.121L183.024,831.121z"/>
							</g>
						</g>
						<g>
							<g>
								<path fill="#FEFEFE" d="M234.577,810.398c0.892,8.139,1.422,15.928-0.956,23.896c-1.308,4.389-4.027,13.217-7.362,16.441
									c-0.708,0.686,0.372,1.762,1.079,1.082c3.708-3.59,5.123-10.621,7.042-15.217c3.493-8.355,2.684-17.436,1.724-26.203
									C235.997,809.432,234.471,809.422,234.577,810.398L234.577,810.398z"/>
							</g>
						</g>
					</g>
				</g>
				<path fill="#A6E7FD" d="M201.494,927.541c0,0-45.559-40.676-38.996-78.91c6.564-38.232,62.162,7.73,62.162,7.73
					s-0.772-49.623,36.679-61.014c37.451-11.389,63.707,42.711,63.707,42.711s46.719-11.389,79.537,8.539
					c32.818,19.934,44.016,24.404,86.487,16.678c42.47-7.729,110.423-7.729,107.722,22.779
					c-2.703,30.506-133.591,67.928-201.933,50.844c-68.339-17.084-126.253-8.949-149.804-6.51
					C223.502,932.83,213.849,935.676,201.494,927.541z"/>
				<path fill="#A6E7FD" d="M291.064,936.287c0,0,72.197-10.98,73.215-1.627C365.297,944.016,267.88,941.17,291.064,936.287z"/>
				<g>
					<g>
						<g>
							<path fill="#FFFFFF" d="M242.872,887.756l-0.219-0.227c0.226-0.217,22.708-22.408,40.85-73.771l0.297,0.105
								C265.63,865.303,243.099,887.539,242.872,887.756z"/>
						</g>
					</g>
					<path fill="#FFFFFF" d="M276.956,812.668c0,0-4.352,7.785,1.709,14.32C278.666,826.988,282.512,818.268,276.956,812.668z"/>
					<path fill="#FFFFFF" d="M290.266,818.416c0,0-8.92,0.068-11.601,8.572C278.665,826.988,288.146,826.016,290.266,818.416z"/>
					<path fill="#FFFFFF" d="M287.555,801.842c0,0-7.195,5.27-4.401,13.734C283.154,815.576,290.279,809.244,287.555,801.842z"/>
					<path fill="#FFFFFF" d="M268.378,826.873c0,0-6.252,10.994,1.382,19.623C269.76,846.496,275.399,834.248,268.378,826.873z"/>
					<path fill="#FFFFFF" d="M285.672,833.971c0,0-11.832,0.646-15.913,12.523C269.759,846.494,282.393,844.57,285.672,833.971z"/>
					<path fill="#FFFFFF" d="M259.843,843.084c0,0-6.252,10.994,1.383,19.621C261.227,862.705,266.865,850.457,259.843,843.084z"/>
					<path fill="#FFFFFF" d="M277.137,850.182c0,0-11.832,0.646-15.913,12.523C261.225,862.705,273.857,860.781,277.137,850.182z"/>
				</g>
				<g>
					<g>
						<path fill="#FFFFFF" d="M179.771,852.066c4.827,9.596,10.911,18.416,18.607,25.934c3.851,3.764,8.225,6.516,12.941,9.053
							c4.615,2.484,8.813,5.693,13.853,7.262c0.942,0.293,1.342-1.18,0.405-1.471c-4.903-1.527-9.007-4.688-13.487-7.107
							c-4.628-2.5-8.745-5.236-12.634-8.814c-7.747-7.131-13.665-16.273-18.369-25.623
							C180.645,850.42,179.331,851.191,179.771,852.066L179.771,852.066z"/>
					</g>
					<g>
						<path fill="#FFFFFF" d="M169.753,868.182c7.046,2.912,14.209,3.461,21.76,3.484c0.984,0.002,0.984-1.521,0-1.525
							c-7.392-0.023-14.455-0.578-21.355-3.43C169.249,866.336,168.856,867.811,169.753,868.182L169.753,868.182z"/>
					</g>
					<g>
						<path fill="#FFFFFF" d="M198.38,852.07c3.751,7.248,3.715,15.951-1.711,22.361c-0.631,0.744,0.442,1.83,1.078,1.078
							c5.881-6.943,6.037-16.313,1.951-24.211C199.244,850.426,197.928,851.195,198.38,852.07L198.38,852.07z"/>
					</g>
					<g>
						<path fill="#FFFFFF" d="M180.553,887.834c7.281,5.275,18.772-0.42,24.971-4.576c0.813-0.547,0.05-1.869-0.771-1.318
							c-5.688,3.816-16.636,9.5-23.431,4.576C180.524,885.938,179.765,887.26,180.553,887.834L180.553,887.834z"/>
					</g>
					<g>
						<path fill="#FFFFFF" d="M214.545,861.346c0.048,4.227,1.201,7.959,0.428,12.254c-0.751,4.176-2.925,7.756-5.797,10.797
							c-0.676,0.715,0.401,1.795,1.077,1.08c2.725-2.885,4.558-6.025,5.79-9.797c1.636-5.002,0.084-9.33,0.028-14.334
							C216.06,860.361,214.534,860.361,214.545,861.346L214.545,861.346z"/>
					</g>
				</g>
			</g>
			<g>
				<g>
					<g>
						<g>
							<path fill="#FDB735" d="M809.923,853.945l0.543-0.117c-0.115-0.541-11.406-55.154,12.252-148.365l-0.539-0.135
								C798.485,798.676,809.806,853.402,809.923,853.945z"/>
						</g>
					</g>
					<path fill="#FDB735" d="M833.403,710.271c0,0-1.234,15.699-16.537,19.361C816.866,729.633,819.755,713.057,833.403,710.271z"/>
					<path fill="#FDB735" d="M808.222,705.68c0,0,13.035,8.838,8.648,23.953C816.87,729.633,803.894,718.918,808.222,705.68z"/>
					<path fill="#FDB735" d="M828.437,683.988c0,0,5.408,14.791-6.988,24.488C821.448,708.477,817.185,692.195,828.437,683.988z"/>
					<path fill="#FDB735" d="M832.087,739.541c0,0-1.584,22.268-21.248,27.465C810.839,767.006,814.554,743.492,832.087,739.541z"/>
					<path fill="#FDB735" d="M799.733,733.027c0,0,16.746,12.539,11.109,33.979C810.843,767.006,794.169,751.809,799.733,733.027z"
						/>
					<path fill="#FDB735" d="M828.747,771.711c0,0-1.584,22.27-21.25,27.463C807.497,799.174,811.212,775.66,828.747,771.711z"/>
					<path fill="#FDB735" d="M796.394,765.199c0,0,16.748,12.535,11.109,33.975C807.503,799.174,790.829,783.979,796.394,765.199z"
						/>
				</g>
				<g>
					<path fill="#FF811B" d="M874.409,851.48c0,0,26.844-73.215,10.168-81.352c-16.676-8.135-79.316,27.66-84.197,68.742
						c-4.881,41.08,23.592,53.689,27.252,51.248c3.66-2.438,15.863-3.254,19.932-7.727
						C851.63,877.918,874.409,851.48,874.409,851.48z"/>
					<g>
						<g>
							<g>
								<path fill="#FEFEFE" d="M876.419,782.586c-15.91,6.918-25.592,23.857-33.619,38.391c-4.99,9.027-8.596,18.139-11.57,28.012
									c-3.256,10.805-7.652,21.211-10.996,31.982c-0.291,0.936-1.764,0.535-1.471-0.406c3.561-11.459,8.154-22.555,11.619-34.055
									c2.818-9.354,6.43-17.746,11.1-26.303c8.031-14.715,18.1-31.951,34.17-38.938
									C876.542,780.881,877.321,782.193,876.419,782.586L876.419,782.586z"/>
							</g>
						</g>
						<g>
							<g>
								<path fill="#FEFEFE" d="M869.526,807.906c-7.352,0.07-14.535,1.049-21.172,4.371c-0.877,0.439-1.65-0.877-0.771-1.318
									c6.881-3.443,14.318-4.504,21.943-4.578C870.511,806.371,870.511,807.896,869.526,807.906L869.526,807.906z"/>
							</g>
						</g>
						<g>
							<g>
								<path fill="#FEFEFE" d="M839.272,795.123c-2.664,4.215-2.125,9.291-1.955,14.051c0.211,5.902,0.262,11.256,1.422,17.09
									c0.191,0.959-1.277,1.367-1.471,0.404c-1.191-5.986-1.367-11.369-1.477-17.494c-0.09-5.098-0.682-10.32,2.164-14.82
									C838.479,793.525,839.8,794.287,839.272,795.123L839.272,795.123z"/>
							</g>
						</g>
						<g>
							<g>
								<path fill="#FEFEFE" d="M873.44,831.121c-2.654,4.271-9.418,5.236-13.881,6.209c-8.49,1.85-16.713,2.703-25.42,2.709
									c-0.982,0.002-0.982-1.523,0-1.523c7.695-0.008,14.918-0.734,22.479-2.15c4.559-0.854,12.822-1.697,15.506-6.014
									C872.64,829.518,873.96,830.283,873.44,831.121L873.44,831.121z"/>
							</g>
						</g>
						<g>
							<g>
								<path fill="#FEFEFE" d="M821.888,810.398c-0.893,8.139-1.422,15.928,0.955,23.896c1.309,4.389,4.027,13.217,7.363,16.441
									c0.707,0.686-0.373,1.762-1.08,1.082c-3.707-3.59-5.123-10.621-7.041-15.217c-3.492-8.355-2.684-17.436-1.723-26.203
									C820.468,809.432,821.993,809.422,821.888,810.398L821.888,810.398z"/>
							</g>
						</g>
					</g>
				</g>
				<path fill="#A6E7FD" d="M854.972,927.541c0,0,45.559-40.676,38.994-78.91c-6.563-38.232-62.162,7.73-62.162,7.73
					s0.773-49.623-36.678-61.014c-37.451-11.389-63.707,42.711-63.707,42.711s-46.721-11.389-79.537,8.539
					c-32.818,19.934-44.016,24.404-86.488,16.678c-42.469-7.729-110.421-7.729-107.72,22.779
					c2.703,30.506,133.589,67.928,201.931,50.844c68.34-17.084,126.254-8.949,149.805-6.51
					C832.962,932.83,842.616,935.676,854.972,927.541z"/>
				<path fill="#A6E7FD" d="M765.399,936.287c0,0-72.197-10.98-73.215-1.627C691.167,944.016,788.585,941.17,765.399,936.287z"/>
				<g>
					<g>
						<g>
							<path fill="#FFFFFF" d="M813.593,887.756l0.219-0.227c-0.225-0.217-22.707-22.408-40.85-73.771l-0.297,0.105
								C790.835,865.303,813.366,887.539,813.593,887.756z"/>
						</g>
					</g>
					<path fill="#FFFFFF" d="M779.509,812.668c0,0,4.352,7.785-1.709,14.32C777.8,826.988,773.952,818.268,779.509,812.668z"/>
					<path fill="#FFFFFF" d="M766.198,818.416c0,0,8.92,0.068,11.602,8.572C777.8,826.988,768.319,826.016,766.198,818.416z"/>
					<path fill="#FFFFFF" d="M768.909,801.842c0,0,7.195,5.27,4.402,13.734C773.312,815.576,766.185,809.244,768.909,801.842z"/>
					<path fill="#FFFFFF" d="M788.087,826.873c0,0,6.252,10.994-1.383,19.623C786.704,846.496,781.065,834.248,788.087,826.873z"/>
					<path fill="#FFFFFF" d="M770.792,833.971c0,0,11.832,0.646,15.914,12.523C786.706,846.494,774.071,844.57,770.792,833.971z"/>
					<path fill="#FFFFFF" d="M796.622,843.084c0,0,6.252,10.994-1.385,19.621C795.237,862.705,789.601,850.457,796.622,843.084z"/>
					<path fill="#FFFFFF" d="M779.327,850.182c0,0,11.832,0.646,15.912,12.523C795.239,862.705,782.606,860.781,779.327,850.182z"/>
				</g>
				<g>
					<g>
						<path fill="#FFFFFF" d="M876.692,852.066c-4.826,9.596-10.91,18.416-18.605,25.934c-3.852,3.764-8.227,6.516-12.941,9.053
							c-4.615,2.484-8.813,5.693-13.854,7.262c-0.941,0.293-1.342-1.18-0.404-1.471c4.902-1.527,9.006-4.688,13.486-7.107
							c4.627-2.5,8.744-5.236,12.633-8.814c7.748-7.131,13.666-16.273,18.369-25.623
							C875.819,850.42,877.134,851.191,876.692,852.066L876.692,852.066z"/>
					</g>
					<g>
						<path fill="#FFFFFF" d="M886.712,868.182c-7.047,2.912-14.209,3.461-21.76,3.484c-0.984,0.002-0.984-1.521,0-1.525
							c7.391-0.023,14.455-0.578,21.355-3.43C887.216,866.336,887.608,867.811,886.712,868.182L886.712,868.182z"/>
					</g>
					<g>
						<path fill="#FFFFFF" d="M858.085,852.07c-3.752,7.248-3.715,15.951,1.711,22.361c0.631,0.744-0.441,1.83-1.078,1.078
							c-5.881-6.943-6.037-16.313-1.951-24.211C857.22,850.426,858.536,851.195,858.085,852.07L858.085,852.07z"/>
					</g>
					<g>
						<path fill="#FFFFFF" d="M875.911,887.834c-7.279,5.275-18.771-0.42-24.971-4.576c-0.813-0.547-0.049-1.869,0.771-1.318
							c5.688,3.816,16.635,9.5,23.43,4.576C875.94,885.938,876.7,887.26,875.911,887.834L875.911,887.834z"/>
					</g>
					<g>
						<path fill="#FFFFFF" d="M841.919,861.346c-0.049,4.227-1.201,7.959-0.428,12.254c0.75,4.176,2.924,7.756,5.797,10.797
							c0.676,0.715-0.402,1.795-1.078,1.08c-2.725-2.885-4.557-6.025-5.789-9.797c-1.635-5.002-0.084-9.33-0.027-14.334
							C840.405,860.361,841.931,860.361,841.919,861.346L841.919,861.346z"/>
					</g>
				</g>
			</g>
			<g>
				<path fill="#FDD32A" d="M326.763,720.686l-65.336,65.338v131.754h130.67V786.023
					C377.98,771.902,326.763,720.686,326.763,720.686z"/>
				<polygon fill="#6E5952" points="392.098,786.023 326.763,720.686 460.222,720.686 525.56,786.023 				"/>
				<g>
					<rect x="318.463" y="790.607" fill="#FFE880" width="22.348" height="25.432"/>
					<polygon fill="#FF9000" points="318.463,816.039 318.463,790.607 312.718,790.607 312.718,819.232 340.811,819.232 
						340.811,816.039 					"/>
				</g>
				<g>
					<rect x="307.402" y="851.445" fill="#7F6C65" width="38.722" height="66.332"/>
					<rect x="312.511" y="856.553" fill="#B2826D" width="28.508" height="61.225"/>
				</g>
				<rect x="392.098" y="796.889" fill="#FF9000" width="133.462" height="120.889"/>
				<rect x="392.098" y="786.023" fill="#7F6C65" width="133.462" height="10.865"/>
			</g>
			<g>
				<path fill="#DC4946" d="M719.343,615.5l-74.063,74.068v228.209h148.133V689.568C777.407,673.561,719.343,615.5,719.343,615.5z"
					/>
				<polygon fill="#6E5952" points="432.473,689.568 506.537,615.5 719.343,615.5 645.28,689.568 				"/>
				<rect x="432.473" y="689.568" fill="#FF5D5D" width="212.808" height="9.416"/>
				<rect x="432.473" y="698.984" fill="#FF7372" width="212.808" height="218.793"/>
				<g>
					<polygon fill="#6E5952" points="645.28,792.986 432.473,792.986 403.668,821.791 616.476,821.791 					"/>
					<rect x="403.668" y="821.791" fill="#7F6C65" width="212.807" height="9.717"/>
					<polygon fill="#DC4946" points="616.476,821.791 645.28,792.986 645.28,831.508 616.476,831.508 					"/>
				</g>
				<g>
					<rect x="470.542" y="727.93" fill="#FFE880" width="22.346" height="41.93"/>
					<polygon fill="#DC4946" points="470.542,769.859 470.542,727.93 464.795,727.93 464.795,773.053 492.887,773.053 
						492.887,769.859 					"/>
				</g>
				<g>
					<rect x="530.577" y="727.93" fill="#FFE880" width="22.344" height="41.93"/>
					<polygon fill="#DC4946" points="530.577,769.859 530.577,727.93 524.831,727.93 524.831,773.053 552.921,773.053 
						552.921,769.859 					"/>
				</g>
				<g>
					<rect x="590.606" y="727.93" fill="#FFE880" width="22.35" height="41.93"/>
					<polygon fill="#DC4946" points="590.606,769.859 590.606,727.93 584.86,727.93 584.86,773.053 612.956,773.053 
						612.956,769.859 					"/>
				</g>
				<g>
					<rect x="470.542" y="851.445" fill="#FFE880" width="22.346" height="41.928"/>
					<polygon fill="#DC4946" points="470.542,893.373 470.542,851.445 464.795,851.445 464.795,896.564 492.887,896.564 
						492.887,893.373 					"/>
				</g>
				<g>
					<rect x="590.606" y="851.445" fill="#FFE880" width="22.35" height="41.928"/>
					<polygon fill="#DC4946" points="590.606,893.373 590.606,851.445 584.86,851.445 584.86,896.564 612.956,896.564 
						612.956,893.373 					"/>
				</g>
				<g>
					<rect x="519.513" y="851.445" fill="#7F6C65" width="38.721" height="66.332"/>
					<rect x="524.624" y="856.553" fill="#B2826D" width="28.504" height="61.225"/>
				</g>
				<g>
					<polygon fill="#DC4946" points="674.538,615.5 642.999,647.043 642.999,584.621 699.198,584.621 699.198,615.5 					"/>
					<rect x="622.577" y="584.621" fill="#FF7372" width="20.422" height="62.422"/>
				</g>
			</g>
			<g>
				<g>
					<path fill="#3D7475" d="M414.342,877.029c-2.258-0.609-4.619-0.967-7.067-0.967c-14.864,0-26.914,12.051-26.914,26.914
						c0,5.471,1.643,10.553,4.448,14.801h14.131c-2.806-4.248-4.448-9.33-4.448-14.801
						C394.491,890.559,402.911,880.135,414.342,877.029z"/>
					<path fill="#4D9D7B" d="M414.342,877.029c-11.431,3.105-19.851,13.529-19.851,25.947c0,5.471,1.643,10.553,4.448,14.801h30.8
						c2.804-4.248,4.449-9.33,4.449-14.801C434.189,890.559,425.771,880.135,414.342,877.029z"/>
				</g>
				<g>
					<path fill="#9FB764" d="M387.97,887.877c-1.657-0.451-3.389-0.711-5.184-0.711c-10.91,0-19.751,8.842-19.751,19.748
						c0,4.016,1.205,7.746,3.264,10.863h10.369c-2.059-3.117-3.264-6.848-3.264-10.863
						C373.404,897.805,379.583,890.156,387.97,887.877z"/>
					<path fill="#D0D16B" d="M387.97,887.877c-8.388,2.279-14.566,9.928-14.566,19.037c0,4.016,1.205,7.746,3.264,10.863h22.603
						c2.059-3.117,3.266-6.848,3.266-10.863C402.536,897.805,396.356,890.156,387.97,887.877z"/>
				</g>
				<g>
					<path fill="#9FB764" d="M444.264,887.877c-1.657-0.451-3.389-0.711-5.187-0.711c-10.906,0-19.747,8.842-19.747,19.748
						c0,4.016,1.203,7.746,3.261,10.863h10.372c-2.059-3.117-3.265-6.848-3.265-10.863
						C429.697,897.805,435.873,890.156,444.264,887.877z"/>
					<path fill="#D0D16B" d="M444.264,887.877c-8.391,2.279-14.566,9.928-14.566,19.037c0,4.016,1.206,7.746,3.265,10.863h22.606
						c2.052-3.117,3.258-6.848,3.258-10.863C458.826,897.805,452.651,890.156,444.264,887.877z"/>
				</g>
			</g>
			<g>
				<g>
					<path fill="#9FB764" d="M691.528,877.029c-2.252-0.609-4.617-0.967-7.061-0.967c-14.865,0-26.912,12.051-26.912,26.914
						c0,5.471,1.639,10.553,4.443,14.801h14.131c-2.807-4.248-4.447-9.33-4.447-14.801
						C671.683,890.559,680.101,880.135,691.528,877.029z"/>
					<path fill="#D0D16B" d="M691.528,877.029c-11.428,3.105-19.846,13.529-19.846,25.947c0,5.471,1.641,10.553,4.447,14.801h30.803
						c2.803-4.248,4.447-9.33,4.447-14.801C711.38,890.559,702.964,880.135,691.528,877.029z"/>
				</g>
				<g>
					<path fill="#9FB764" d="M721.45,887.877c-1.65-0.451-3.383-0.711-5.18-0.711c-10.908,0-19.75,8.842-19.75,19.748
						c0,4.016,1.205,7.746,3.264,10.863h10.369c-2.057-3.117-3.266-6.848-3.266-10.863
						C706.888,897.805,713.065,890.156,721.45,887.877z"/>
					<path fill="#D0D16B" d="M721.45,887.877c-8.385,2.279-14.563,9.928-14.563,19.037c0,4.016,1.209,7.746,3.266,10.863h22.602
						c2.059-3.117,3.264-6.848,3.264-10.863C736.019,897.805,729.843,890.156,721.45,887.877z"/>
				</g>
			</g>
		</g>
		<path fill="#D0D16B" d="M925.616,932.006c0,7.855-6.369,14.227-14.227,14.227H156.844c-7.857,0-14.227-6.371-14.227-14.227l0,0
			c0-7.857,6.37-14.229,14.227-14.229H911.39C919.247,917.777,925.616,924.148,925.616,932.006L925.616,932.006z"/>
	</g>
	<g>
		<defs>
			<path id="SVGID_2_" d="M724.302,325.042c-0.713-0.005-1.426-0.005-2.137-0.001c-3.926,0.021-7.807-0.247-11.637-0.733
				c8.42-14.948,13.244-32.192,13.244-50.571c0-57.005-46.209-103.217-103.217-103.217c-23.166,0-44.551,7.633-61.775,20.521
				c-25.701-13.109-54.789-20.521-85.621-20.521c-76.889,0-143.031,45.976-172.449,111.934
				c-17.569,39.388-47.999,71.387-85.744,92.256c-65.281,36.095-109.579,105.493-109.962,185.278
				c-0.306,64.287,28.315,122.346,73.621,161.686H509.39c29.921-4.348,60.324-4.451,90.281,0h223.17
				c65.373-35.121,110.078-103.732,111.162-182.88C935.603,422.147,840.956,325.631,724.302,325.042z"/>
		</defs>
		<clipPath id="SVGID_3_">
			<use xlink:href="#SVGID_2_"  overflow="visible"/>
		</clipPath>
		<path clip-path="url(#SVGID_3_)" fill="none" d="M911.521,69.082h91.375C972.569,64.577,941.802,64.68,911.521,69.082z"/>
		<g clip-path="url(#SVGID_3_)">
			<g>
				<polygon fill="#47284F" points="427.242,475.497 423.152,479.353 446.043,503.619 450.13,499.763 458.223,492.132 
					435.331,467.866 				"/>
				<path fill="#3E4E6C" d="M463.367,471.83l-9.451,8.917l-7.469-7.919l9.449-8.917c2.26-2.127,2.363-5.683,0.233-7.941
					c-2.127-2.257-5.686-2.36-7.944-0.232l-9.45,8.915l-3.405,3.213l22.892,24.267l3.405-3.213l9.45-8.915
					c2.258-2.13,2.362-5.685,0.233-7.943C469.182,469.806,465.625,469.701,463.367,471.83z"/>
			</g>
			<path fill="#3E4E6C" d="M346.94,374.447l-15.901,14.999c-9.418,8.885-9.853,23.777-0.968,33.195
				c8.885,9.418,23.777,9.854,33.196,0.968l3.862-3.646l81.18,86.059c2.133,2.257,5.687,2.361,7.945,0.231
				c2.259-2.13,2.361-5.687,0.233-7.941l-81.186-86.059l3.867-3.645c9.419-8.886,9.854-23.777,0.968-33.196
				C371.252,365.995,356.36,365.561,346.94,374.447z M371.458,400.436l-15.901,15c-4.913,4.635-12.678,4.407-17.311-0.505
				c-4.635-4.911-4.408-12.677,0.504-17.312l15.9-14.998c4.913-4.634,12.677-4.408,17.31,0.503
				C376.597,388.036,376.369,395.802,371.458,400.436z"/>
		</g>
		<g clip-path="url(#SVGID_3_)">
			<path fill="#EA7B78" d="M379.636,568.662l25.155-39.157c3.861-6.012,1.94-14.03-4.231-17.633l0,0
				c-5.323-3.109-12.12-1.894-16.031,2.868l-27.591,33.543l-18.396,7.988L379.636,568.662z"/>
			<path fill="#FF8882" d="M416.386,574.832l28.52-44.393c4.808-7.48,2.124-17.473-5.785-21.538l0,0
				c-6.532-3.358-14.535-1.517-18.939,4.359l-31.876,42.509l-23.828,10.346L416.386,574.832z"/>
			<path fill="#FFA68D" d="M243.352,520.196l8.613-5.483c7.271-4.63,15.146-8.239,23.399-10.724l0,0
				c15.333-4.615,29.758-11.836,42.645-21.341l18.552-13.683c4.795-3.538,17.22-13.924,21.761-10.064
				c10.549,8.966,2.607,22.804-1.965,29.102l-16.688,22.986c-6.844,9.423-6.302,22.318,1.304,31.139l5.545,6.423
				c6.41,7.432,15.36,12.206,25.101,13.387l27.22,3.307c8.684,1.057,17.475-0.807,24.984-5.293l24.018-14.351
				c11.053-6.604,25.208-4.649,34.057,4.701l3.526,3.725l-44.247,36.799c-7.371,6.129-16.453,9.836-26.01,10.615l-28.018,2.289
				c-3.137,0.254-6.292,0.191-9.415-0.188l-124.611-15.137l-51.979,7.08v-67.269L243.352,520.196z"/>
			<path opacity="0.7" fill="#FF8882" d="M481.898,550.301c-1.24-1.312-2.588-2.471-4.015-3.488
				c-18.225,14.136-37.557,30.031-52.603,37.361c-17.143,8.352-36.923,6.594-67.667,0s-64.2,0-106.837-18.059
				c-23.548-9.975-28.055-27.993-27.372-42.128l-22.259,4.229v67.269l51.979-7.08l124.611,15.137
				c3.123,0.379,6.277,0.441,9.415,0.188l28.018-2.289c9.558-0.779,18.639-4.486,26.01-10.615l44.247-36.799L481.898,550.301z"/>
			<polygon fill="#FF8882" points="201.145,528.215 201.145,595.484 216.233,593.428 222.34,524.188 			"/>
			<polygon fill="#C1F3F4" points="198.908,527.348 214.732,521.92 212.095,612.307 167.699,615.822 			"/>
			<polygon fill="#41A9C0" points="201.145,521.92 201.145,614.936 -19.471,690.473 -19.471,550.949 			"/>
			<path opacity="0.4" fill="#FF8882" d="M351.435,559.779c2.322-0.322,4.199-1.244,5.728-2.563
				c-3.993-2.229-7.606-5.145-10.645-8.667l-5.545-6.423c-7.483-8.679-8.113-21.297-1.61-30.676
				c-9.308,3.318-20.372,8.521-23.971,15.36C308.797,539.339,335.61,561.977,351.435,559.779z"/>
		</g>
		<g clip-path="url(#SVGID_3_)">
			<path fill="#EA7B78" d="M644.802,568.662l-25.154-39.157c-3.861-6.012-1.939-14.03,4.23-17.633l0,0
				c5.322-3.109,12.119-1.894,16.031,2.868l27.592,33.543l18.395,7.988L644.802,568.662z"/>
			<path fill="#FF8882" d="M608.052,574.832l-28.52-44.393c-4.807-7.48-2.123-17.473,5.785-21.538l0,0
				c6.533-3.358,14.535-1.517,18.939,4.359l31.875,42.509l23.828,10.346L608.052,574.832z"/>
			<path fill="#FFA68D" d="M781.085,520.196l-8.611-5.483c-7.271-4.63-15.146-8.239-23.4-10.724l0,0
				c-15.332-4.615-29.758-11.836-42.645-21.341l-18.553-13.683c-4.795-3.538-17.219-13.924-21.76-10.064
				c-10.549,8.966-2.607,22.804,1.965,29.102l16.688,22.986c6.844,9.423,6.303,22.318-1.303,31.139l-5.547,6.423
				c-6.408,7.432-15.359,12.206-25.1,13.387l-27.221,3.307c-8.684,1.057-17.475-0.807-24.984-5.293L576.597,545.6
				c-11.053-6.604-25.207-4.649-34.057,4.701l-3.527,3.725l44.248,36.799c7.371,6.129,16.451,9.836,26.01,10.615l28.018,2.289
				c3.137,0.254,6.291,0.191,9.414-0.188l124.611-15.137l51.979,7.08v-67.269L781.085,520.196z"/>
			<path opacity="0.7" fill="#FF8882" d="M542.54,550.301c1.24-1.312,2.588-2.471,4.014-3.488
				c18.227,14.136,37.557,30.031,52.604,37.361c17.143,8.352,36.924,6.594,67.668,0s64.199,0,106.838-18.059
				c23.547-9.975,28.053-27.993,27.371-42.128l22.258,4.229v67.269l-51.979-7.08l-124.611,15.137
				c-3.123,0.379-6.277,0.441-9.414,0.188l-28.018-2.289c-9.559-0.779-18.639-4.486-26.01-10.615l-44.248-36.799L542.54,550.301z"/>
			<polygon fill="#FF8882" points="823.292,528.215 823.292,595.484 808.204,593.428 802.099,524.188 			"/>
			<polygon fill="#C1F3F4" points="825.53,527.348 809.706,521.92 812.343,612.307 856.739,615.822 			"/>
			<polygon fill="#132028" points="823.292,521.92 823.292,614.936 1043.909,690.473 1043.909,550.949 			"/>
			<path opacity="0.4" fill="#FF8882" d="M673.003,559.779c-2.322-0.322-4.199-1.244-5.729-2.563
				c3.994-2.229,7.607-5.145,10.645-8.667l5.547-6.423c7.482-8.679,8.111-21.297,1.609-30.676
				c9.309,3.318,20.371,8.521,23.973,15.36C715.64,539.339,688.827,561.977,673.003,559.779z"/>
		</g>
		<path clip-path="url(#SVGID_3_)" fill="#DFF9F8" d="M338.542,468.46c0,0,4.981,9.42,12.124,4.71
			c7.143-4.71,8.212-14.548,5.754-15.069C353.962,457.582,341.912,462.746,338.542,468.46z"/>
		<path clip-path="url(#SVGID_3_)" fill="#DFF9F8" d="M470.889,566.115c0,0-6.342-2.16-3.998-6.996
			c2.345-4.834,15.007-8.818,15.007-8.818s3.451,2.002,3.526,3.725C485.5,555.75,470.889,566.115,470.889,566.115z"/>
		<g clip-path="url(#SVGID_3_)">
			<g>
				<g>
					<g>
						<polygon fill="#FFFAD5" points="499.057,402.515 696.19,305.553 781.122,362.431 583.989,459.391 						"/>
						<polygon fill="#526C5B" points="499.057,402.515 696.19,305.553 781.122,362.431 583.989,459.391 						"/>
						<polygon fill="#FFFAD5" points="695.554,314.417 765.763,361.436 584.626,450.528 514.415,403.51 						"/>
						<g>
							<g>
								<path fill="#526C5B" d="M519.214,403.821l176.139-86.635l65.611,43.938l-176.139,86.633L519.214,403.821z M695.114,320.51
									l-170.141,83.683l60.09,40.244l170.141-83.685L695.114,320.51z"/>
							</g>
							<g>
								<g>
									<path fill="#526C5B" d="M713.636,331.171l-18.402-12.323l-20,9.835C685.397,335.492,702.591,336.605,713.636,331.171z"/>
								</g>
								<g>
									<path fill="#526C5B" d="M738.083,370.776l20-9.838l-18.402-12.322C728.636,354.046,727.921,363.969,738.083,370.776z"/>
								</g>
								<g>
									<path fill="#526C5B" d="M540.495,416.33c11.047-5.434,11.762-15.354,1.598-22.161l-20,9.838L540.495,416.33z"/>
								</g>
								<g>
									<path fill="#526C5B" d="M566.54,433.773l18.406,12.324l20-9.836C594.78,429.454,577.587,428.34,566.54,433.773z"/>
								</g>
							</g>
						</g>
						<path fill="#526C5B" d="M613.46,395.569c-17.355-11.624-19.504-26.91-4.797-34.142c14.707-7.235,40.699-3.674,58.055,7.947
							c17.355,11.624,19.502,26.91,4.797,34.143C656.808,410.75,630.819,407.192,613.46,395.569z"/>
						<path fill="#526C5B" d="M577.769,413.125c-4.662-3.123-4.334-7.673,0.73-10.167c5.07-2.491,12.953-1.98,17.615,1.142
							c4.662,3.122,4.334,7.672-0.732,10.165C590.317,416.757,582.431,416.247,577.769,413.125z"/>
						<path fill="#526C5B" d="M702.411,351.82c-4.664-3.123-12.549-3.633-17.617-1.144c-5.064,2.494-5.391,7.044-0.73,10.167
							c4.662,3.121,12.547,3.631,17.613,1.139C706.743,359.492,707.071,354.942,702.411,351.82z"/>
					</g>
					
						<linearGradient id="SVGID_4_" gradientUnits="userSpaceOnUse" x1="373.0894" y1="379.3276" x2="842.7377" y2="379.3276" gradientTransform="matrix(0.9978 0.0664 -0.0664 0.9978 60.8181 -36.2456)">
						<stop  offset="0" style="stop-color:#FFFFFF"/>
						<stop  offset="0.1206" style="stop-color:#D4DAD6"/>
						<stop  offset="0.2526" style="stop-color:#ACB9B1"/>
						<stop  offset="0.3892" style="stop-color:#8C9D92"/>
						<stop  offset="0.5291" style="stop-color:#72877A"/>
						<stop  offset="0.6739" style="stop-color:#607868"/>
						<stop  offset="0.8265" style="stop-color:#556F5E"/>
						<stop  offset="1" style="stop-color:#526C5B"/>
					</linearGradient>
					<polygon fill="url(#SVGID_4_)" points="499.057,402.515 696.19,305.553 781.122,362.431 583.989,459.391 					"/>
				</g>
				<polygon fill="#B1B27F" points="583.989,459.391 499.057,402.515 498.983,403.625 583.915,460.501 582.29,484.908 
					779.423,387.948 781.048,363.542 781.122,362.431 				"/>
				<polygon fill="#3A5E4F" points="499.057,402.515 498.983,403.625 497.358,428.031 582.29,484.908 583.915,460.501 
					583.989,459.391 				"/>
				<polygon fill="#1A3D2E" points="583.81,462.071 526.479,424.127 562.718,452.637 503.882,415.891 555.61,451.219 
					516.958,431.656 553.267,454.486 510.184,431.205 582.511,481.601 				"/>
				<polygon fill="#9E9E72" points="781.005,364.162 699.003,409.803 747.396,388.803 658.56,431.978 752.729,392.905 
					690.11,426.293 779.634,384.779 				"/>
			</g>
			<g>
				<g>
					<g>
						<path fill="#FFFAD5" d="M777.882,348.563c-31.299,21.257-61.219,45.254-95.172,62.271
							c-31.611,15.842-65.902,25.793-99.221,37.286c-28.355-18.989-56.711-37.978-85.065-56.967
							c32.942-12.458,67.625-21.504,99.221-37.287c33.959-16.962,63.412-41.73,95.172-62.269
							C721.171,310.584,749.526,329.575,777.882,348.563z"/>
						<path fill="#526C5B" d="M777.882,348.563c-31.299,21.257-61.219,45.254-95.172,62.271
							c-31.611,15.842-65.902,25.793-99.221,37.286c-28.355-18.989-56.711-37.978-85.065-56.967
							c32.942-12.458,67.625-21.504,99.221-37.287c33.959-16.962,63.412-41.73,95.172-62.269
							C721.171,310.584,749.526,329.575,777.882,348.563z"/>
						<path fill="#FFFAD5" d="M584.735,440.157c-23.4-15.803-46.805-31.605-70.203-47.409
							c30.203-10.816,61.715-19.482,90.484-33.944c31.412-15.791,59.098-38.074,88.07-57.756
							c23.484,15.743,46.969,31.485,70.455,47.227c-28.785,20.026-56.773,41.792-88.203,57.623
							C646.487,420.427,615.208,429.776,584.735,440.157z"/>
						<g>
							<g>
								<path fill="#526C5B" d="M759.011,348.244c-28.008,19.583-55.344,40.689-85.977,56.111
									c-28.02,14.106-58.344,23.273-87.943,33.33c-21.859-14.79-43.719-29.582-65.58-44.374
									c29.365-10.384,59.877-18.928,87.809-32.963c30.613-15.386,57.68-36.95,85.822-56.264
									C715.097,318.805,737.054,333.523,759.011,348.244z M585.497,434.727c63.287-21.442,113.291-48.006,168.051-86.484
									c-20.123-13.493-40.24-26.984-60.357-40.476c-27.16,18.832-53.467,39.538-83.107,54.431
									c-26.934,13.532-56.264,21.925-84.623,31.823C545.472,407.589,565.483,421.16,585.497,434.727z"/>
							</g>
							<g>
								<path fill="#526C5B" d="M566.907,423.749c7.355,4.981,11.031,7.473,18.389,12.458c8.439-2.904,12.533-4.255,20.611-6.98
									C594.556,422.045,579.794,419.792,566.907,423.749z"/>
								<path fill="#526C5B" d="M543.187,386.46c-8.082,2.729-12.189,4.113-20.697,7.2c7.357,4.984,11.033,7.476,18.391,12.458
									C552.597,401.931,553.327,393.375,543.187,386.46z"/>
								<path fill="#526C5B" d="M737.802,335.848c-9.957,6.801-10.271,18.575-0.051,25.434c7.613-5.416,11.342-8.093,18.529-13.042
									C748.89,343.283,745.194,340.804,737.802,335.848z"/>
								<path fill="#526C5B" d="M711.647,318.312c-7.393-4.957-11.088-7.436-18.48-12.392c-7.266,4.871-11.01,7.536-18.623,12.949
									C685.751,325.734,700.587,325.217,711.647,318.312z"/>
							</g>
						</g>
						<path fill="#526C5B" d="M666.917,367.072c12.188,7.63,22.219,28.25,4.736,36.358c-17.48,8.104-42.543,0.032-57.725-9.561
							c-10.523-6.652-23.02-25.137-5.227-32.598C627.083,353.567,650.335,356.691,666.917,367.072z"/>
						<path fill="#526C5B" d="M702.083,342.964c4.689,3.146,4.553,8.506-0.395,11.991c-4.945,3.485-12.811,3.742-17.494,0.601
							c-4.684-3.14-4.416-8.499,0.523-11.987C689.657,340.081,697.396,339.818,702.083,342.964z"/>
						<path fill="#526C5B" d="M578.821,406.4c4.652,3.171,12.543,4.359,17.557,2.636c5.012-1.722,5.26-5.713,0.604-8.874
							c-4.656-3.16-12.447-4.308-17.457-2.596C574.517,399.275,574.167,403.229,578.821,406.4z"/>
					</g>
				</g>
			</g>
			<g>
				<polygon opacity="0.5" fill="#10222E" points="663.985,444.72 665.714,418.78 697.913,402.94 696.187,428.881 				"/>
				<polygon opacity="0.5" fill="#10222E" points="697.913,402.94 665.714,418.78 580.292,361.811 580.829,361.575 612.517,345.986 
									"/>
				<polygon fill="#FAFAFA" points="664.497,444.469 666.226,418.529 698.429,402.689 696.7,428.632 				"/>
				<path fill="#FAFAFA" d="M698.429,402.689l-32.203,15.84l-85.473-56.916c0,0,18.758-9.228,32.033-15.953L698.429,402.689z"/>
			</g>
			<polygon fill="#526C5B" points="583.349,360.335 669.446,416.944 667.177,443.151 668.665,442.452 670.396,416.477 
				584.356,359.837 			"/>
			<polygon fill="#526C5B" points="608.304,347.921 694.79,404.584 692.521,430.792 694.011,430.093 695.739,404.118 
				609.374,347.384 			"/>
		</g>
	</g>
</g>
<g>
	<g>
		<linearGradient id="SVGID_5_" gradientUnits="userSpaceOnUse" x1="404.6479" y1="313.2227" x2="533.5967" y2="313.2227">
			<stop  offset="0.1" style="stop-color:#311944"/>
			<stop  offset="0.6853" style="stop-color:#6D2F66"/>
			<stop  offset="1" style="stop-color:#893976"/>
		</linearGradient>
		<path fill="url(#SVGID_5_)" d="M533.597,309.112c0,35.652-28.728,66.474-64.275,68.85c-35.668,2.384-64.673-24.757-64.673-60.63
			c0-35.873,29.005-66.712,64.673-68.875C504.869,246.301,533.597,273.46,533.597,309.112z"/>
	</g>
	<g>
		<linearGradient id="SVGID_6_" gradientUnits="userSpaceOnUse" x1="522.124" y1="152.7441" x2="415.345" y2="512.6932">
			<stop  offset="0" style="stop-color:#FF9085"/>
			<stop  offset="1" style="stop-color:#FB6FBB"/>
		</linearGradient>
		<path fill="url(#SVGID_6_)" d="M538.995,309.112c0,35.652-28.728,66.474-64.275,68.85c-35.669,2.384-64.673-24.757-64.673-60.63
			c0-35.873,29.004-66.712,64.673-68.875C510.267,246.301,538.995,273.46,538.995,309.112z"/>
		<path fill="#FFFFFF" d="M472.449,348.25c-2.796,0.183-5.397-1.118-6.844-3.441L441.3,305.779
			c-2.278-3.657-1.051-8.667,2.74-11.188c3.787-2.52,8.703-1.6,10.977,2.056l16.856,27.092l22.241-45.297
			c1.996-4.065,6.792-5.93,10.708-4.167c3.916,1.763,5.475,6.484,3.481,10.546l-28.742,58.583c-1.316,2.682-3.933,4.528-6.832,4.82
			C472.636,348.235,472.542,348.243,472.449,348.25z"/>
	</g>
</g>
</svg>
